<?xml version="1.0" encoding="UTF-8" standalone="no"?>
<!DOCTYPE svg PUBLIC "-//W3C//DTD SVG 1.0//EN" "http://www.w3.org/TR/2001/PR-SVG-20010719/DTD/svg10.dtd">
<svg width="29cm" height="23cm" viewBox="319 5 573 446" xmlns="http://www.w3.org/2000/svg" xmlns:xlink="http://www.w3.org/1999/xlink">
  <g>
    <path style="fill: #ffffff" d="M 373.333 10.506 L 426.667,10.506 C 434.03,10.506 440,17.2217 440,25.506 C 440,33.7903 434.03,40.506 426.667,40.506 L 373.333,40.506 C 365.97,40.506 360,33.7903 360,25.506 C 360,17.2217 365.97,10.506 373.333,10.506z"/>
    <path style="fill: none; fill-opacity:0; stroke-width: 2; stroke: #000000" d="M 373.333 10.506 L 426.667,10.506 C 434.03,10.506 440,17.2217 440,25.506 C 440,33.7903 434.03,40.506 426.667,40.506 L 373.333,40.506 C 365.97,40.506 360,33.7903 360,25.506 C 360,17.2217 365.97,10.506 373.333,10.506"/>
    <text font-size="11.2889" style="fill: #000000;text-anchor:middle;font-family:Liberation Serif;font-style:normal;font-weight:normal" x="400" y="29.0338">
      <tspan x="400" y="29.0338">Начало</tspan>
    </text>
  </g>
  <g>
    <polygon style="fill: #ffffff" points="400,70 460,100.506 400,131.012 340,100.506 "/>
    <polygon style="fill: none; fill-opacity:0; stroke-width: 2; stroke: #000000" points="400,70 460,100.506 400,131.012 340,100.506 "/>
    <text font-size="10.16" style="fill: #000000;text-anchor:middle;font-family:Liberation Serif;font-style:normal;font-weight:normal" x="400" y="96.906">
      <tspan x="400" y="96.906">Пользователь</tspan>
      <tspan x="400" y="109.606">авторизован?</tspan>
    </text>
  </g>
  <g>
    <rect style="fill: #ffffff" x="350" y="250" width="100" height="40"/>
    <rect style="fill: none; fill-opacity:0; stroke-width: 2; stroke: #000000" x="350" y="250" width="100" height="40"/>
    <text font-size="11.2889" style="fill: #000000;text-anchor:middle;font-family:Liberation Serif;font-style:normal;font-weight:normal" x="400" y="265.989">
      <tspan x="400" y="265.989">Проверка</tspan>
      <tspan x="400" y="280.1">логина и пароля</tspan>
    </text>
  </g>
  <g>
    <polygon style="fill: #ffffff" points="400,320 460,350 400,380 340,350 "/>
    <polygon style="fill: none; fill-opacity:0; stroke-width: 2; stroke: #000000" points="400,320 460,350 400,380 340,350 "/>
    <text font-size="11.2889" style="fill: #000000;text-anchor:middle;font-family:Liberation Serif;font-style:normal;font-weight:normal" x="400" y="345.989">
      <tspan x="400" y="345.989">Данные</tspan>
      <tspan x="400" y="360.1">верны?</tspan>
    </text>
  </g>
  <g>
    <rect style="fill: #ffffff" x="350" y="410" width="100" height="40"/>
    <rect style="fill: none; fill-opacity:0; stroke-width: 2; stroke: #000000" x="350" y="410" width="100" height="40"/>
    <text font-size="11.2889" style="fill: #000000;text-anchor:middle;font-family:Liberation Serif;font-style:normal;font-weight:normal" x="400" y="425.989">
      <tspan x="400" y="425.989">Сохранение</tspan>
      <tspan x="400" y="440.1">токена доступа</tspan>
    </text>
  </g>
  <g>
    <polygon style="fill: #ffffff" points="524.559,10 610,10 595.441,50 510,50 "/>
    <polygon style="fill: none; fill-opacity:0; stroke-width: 2; stroke: #000000" points="524.559,10 610,10 595.441,50 510,50 "/>
    <text font-size="10.16" style="fill: #000000;text-anchor:middle;font-family:Liberation Serif;font-style:normal;font-weight:normal" x="560" y="26.4">
      <tspan x="560" y="26.4">Пользователь</tspan>
      <tspan x="560" y="39.1">открывает экран </tspan>
    </text>
  </g>
  <g>
    <path style="fill: #ffffff" d="M 703.333 300 L 756.667,300 C 764.03,300 770,306.716 770,315 C 770,323.284 764.03,330 756.667,330 L 703.333,330 C 695.97,330 690,323.284 690,315 C 690,306.716 695.97,300 703.333,300z"/>
    <path style="fill: none; fill-opacity:0; stroke-width: 2; stroke: #000000" d="M 703.333 300 L 756.667,300 C 764.03,300 770,306.716 770,315 C 770,323.284 764.03,330 756.667,330 L 703.333,330 C 695.97,330 690,323.284 690,315 C 690,306.716 695.97,300 703.333,300"/>
    <text font-size="11.2889" style="fill: #000000;text-anchor:middle;font-family:Liberation Serif;font-style:normal;font-weight:normal" x="730" y="318.528">
      <tspan x="730" y="318.528">Конец</tspan>
    </text>
  </g>
  <g>
    <polygon style="fill: #ffffff" points="560.021,69.4797 621.066,100.492 560.021,131.504 498.976,100.492 "/>
    <polygon style="fill: none; fill-opacity:0; stroke-width: 2; stroke: #000000" points="560.021,69.4797 621.066,100.492 560.021,131.504 498.976,100.492 "/>
    <text font-size="11.2889" style="fill: #000000;text-anchor:middle;font-family:Liberation Serif;font-style:normal;font-weight:normal" x="560.021" y="96.4808">
      <tspan x="560.021" y="96.4808">Данные есть</tspan>
      <tspan x="560.021" y="110.592">в кэше?</tspan>
    </text>
  </g>
  <g>
    <polygon style="fill: #ffffff" points="560,160 620,190.492 560,220.984 500,190.492 "/>
    <polygon style="fill: none; fill-opacity:0; stroke-width: 2; stroke: #000000" points="560,160 620,190.492 560,220.984 500,190.492 "/>
    <text font-size="11.2889" style="fill: #000000;text-anchor:middle;font-family:Liberation Serif;font-style:normal;font-weight:normal" x="560" y="186.481">
      <tspan x="560" y="186.481">Данные</tspan>
      <tspan x="560" y="200.592">актуальны?</tspan>
    </text>
  </g>
  <g>
    <polygon style="fill: #ffffff" points="694.559,230 780,230 765.441,270 680,270 "/>
    <polygon style="fill: none; fill-opacity:0; stroke-width: 2; stroke: #000000" points="694.559,230 780,230 765.441,270 680,270 "/>
    <text font-size="10.16" style="fill: #000000;text-anchor:middle;font-family:Liberation Serif;font-style:normal;font-weight:normal" x="730" y="246.4">
      <tspan x="730" y="246.4">Отображение</tspan>
      <tspan x="730" y="259.1">данных</tspan>
    </text>
  </g>
  <g>
    <polygon style="fill: #ffffff" points="730,70 790,100.492 730,130.984 670,100.492 "/>
    <polygon style="fill: none; fill-opacity:0; stroke-width: 2; stroke: #000000" points="730,70 790,100.492 730,130.984 670,100.492 "/>
    <text font-size="11.2889" style="fill: #000000;text-anchor:middle;font-family:Liberation Serif;font-style:normal;font-weight:normal" x="730" y="103.536">
      <tspan x="730" y="103.536">API доступен?</tspan>
    </text>
  </g>
  <g>
    <rect style="fill: #ffffff" x="680" y="160" width="100" height="40"/>
    <rect style="fill: none; fill-opacity:0; stroke-width: 2; stroke: #000000" x="680" y="160" width="100" height="40"/>
    <text font-size="11.2889" style="fill: #000000;text-anchor:middle;font-family:Liberation Serif;font-style:normal;font-weight:normal" x="730" y="175.989">
      <tspan x="730" y="175.989">Обновление</tspan>
      <tspan x="730" y="190.1">данных в кэше</tspan>
    </text>
  </g>
  <polyline style="fill: none; fill-opacity:0; stroke-width: 2; stroke: #000000" points="400,40.506 400,41.506 400,69 400,70 "/>
  <polyline style="fill: none; fill-opacity:0; stroke-width: 2; stroke: #000000" points="400,250 400,249 400,222.005 400,221.005 "/>
  <polyline style="fill: none; fill-opacity:0; stroke-width: 2; stroke: #000000" points="400,290 400,291 400,319 400,320 "/>
  <polyline style="fill: none; fill-opacity:0; stroke-width: 2; stroke: #000000" points="560.021,69.4797 560.021,70 560,70 560,50.9766 "/>
  <polyline style="fill: none; fill-opacity:0; stroke-width: 2; stroke: #000000" points="730,200 730,201 730,227.995 730,228.995 "/>
  <polyline style="fill: none; fill-opacity:0; stroke-width: 2; stroke: #000000" points="730,300 730,299 730,272.005 730,271.005 "/>
  <g>
    <polyline style="fill: none; fill-opacity:0; stroke-width: 2; stroke: #000000" points="460,100.506 480,100.506 480,30 506.753,30 "/>
    <polygon style="fill: #000000" points="514.253,30 504.253,33.5 506.753,30 504.253,26.5 "/>
    <polygon style="fill: none; fill-opacity:0; stroke-width: 2; stroke: #000000" points="514.253,30 504.253,33.5 506.753,30 504.253,26.5 "/>
  </g>
  <g>
    <polygon style="fill: #ffffff" points="364.559,180 450,180 435.441,220 350,220 "/>
    <polygon style="fill: none; fill-opacity:0; stroke-width: 2; stroke: #000000" points="364.559,180 450,180 435.441,220 350,220 "/>
    <text font-size="10.16" style="fill: #000000;text-anchor:middle;font-family:Liberation Serif;font-style:normal;font-weight:normal" x="400" y="196.4">
      <tspan x="400" y="196.4">Ввод логина</tspan>
      <tspan x="400" y="209.1">и пароля</tspan>
    </text>
  </g>
  <g>
    <polyline style="fill: none; fill-opacity:0; stroke-width: 2; stroke: #000000" points="560.021,131.504 560,131.504 560,149.473 "/>
    <polygon style="fill: #000000" points="560,156.973 556.5,146.973 560,149.473 563.5,146.973 "/>
    <polygon style="fill: none; fill-opacity:0; stroke-width: 2; stroke: #000000" points="560,156.973 556.5,146.973 560,149.473 563.5,146.973 "/>
  </g>
  <g>
    <polyline style="fill: none; fill-opacity:0; stroke-width: 2; stroke: #000000" points="620,190.492 640,190.492 640,110.527 "/>
    <polygon style="fill: #000000" points="640,103.027 643.5,113.027 640,110.527 636.5,113.027 "/>
    <polygon style="fill: none; fill-opacity:0; stroke-width: 2; stroke: #000000" points="640,103.027 643.5,113.027 640,110.527 636.5,113.027 "/>
  </g>
  <g>
    <polyline style="fill: none; fill-opacity:0; stroke-width: 2; stroke: #000000" points="621.066,100.492 640,100.492 640,100.492 659.473,100.492 "/>
    <polygon style="fill: #000000" points="666.973,100.492 656.973,103.992 659.473,100.492 656.973,96.9919 "/>
    <polygon style="fill: none; fill-opacity:0; stroke-width: 2; stroke: #000000" points="666.973,100.492 656.973,103.992 659.473,100.492 656.973,96.9919 "/>
  </g>
  <g>
    <polyline style="fill: none; fill-opacity:0; stroke-width: 2; stroke: #000000" points="790,100.492 840,100.492 840,219.473 "/>
    <polygon style="fill: #000000" points="840,226.973 836.5,216.973 840,219.473 843.5,216.973 "/>
    <polygon style="fill: none; fill-opacity:0; stroke-width: 2; stroke: #000000" points="840,226.973 836.5,216.973 840,219.473 843.5,216.973 "/>
  </g>
  <g>
    <polyline style="fill: none; fill-opacity:0; stroke-width: 2; stroke: #000000" points="400,131.012 400,131.012 400,168.967 "/>
    <polygon style="fill: #000000" points="400,176.467 396.5,166.467 400,168.967 403.5,166.467 "/>
    <polygon style="fill: none; fill-opacity:0; stroke-width: 2; stroke: #000000" points="400,176.467 396.5,166.467 400,168.967 403.5,166.467 "/>
  </g>
  <g>
    <polyline style="fill: none; fill-opacity:0; stroke-width: 2; stroke: #000000" points="450,430 480,430 480,110.021 "/>
    <polygon style="fill: #000000" points="480,102.521 483.5,112.521 480,110.021 476.5,112.521 "/>
    <polygon style="fill: none; fill-opacity:0; stroke-width: 2; stroke: #000000" points="480,102.521 483.5,112.521 480,110.021 476.5,112.521 "/>
  </g>
  <g>
    <polyline style="fill: none; fill-opacity:0; stroke-width: 2; stroke: #000000" points="400,380 400,380 400,399.473 "/>
    <polygon style="fill: #000000" points="400,406.973 396.5,396.973 400,399.473 403.5,396.973 "/>
    <polygon style="fill: none; fill-opacity:0; stroke-width: 2; stroke: #000000" points="400,406.973 396.5,396.973 400,399.473 403.5,396.973 "/>
  </g>
  <g>
    <polyline style="fill: none; fill-opacity:0; stroke-width: 2; stroke: #000000" points="340,350 320,350 320,149.494 389.473,149.494 "/>
    <polygon style="fill: #000000" points="396.973,149.494 386.973,152.994 389.473,149.494 386.973,145.994 "/>
    <polygon style="fill: none; fill-opacity:0; stroke-width: 2; stroke: #000000" points="396.973,149.494 386.973,152.994 389.473,149.494 386.973,145.994 "/>
  </g>
  <g>
    <polyline style="fill: none; fill-opacity:0; stroke-width: 2; stroke: #000000" points="560,220.984 560,220.984 560,250 676.122,250 "/>
    <polygon style="fill: #000000" points="683.622,250 673.622,253.5 676.122,250 673.622,246.5 "/>
    <polygon style="fill: none; fill-opacity:0; stroke-width: 2; stroke: #000000" points="683.622,250 673.622,253.5 676.122,250 673.622,246.5 "/>
  </g>
  <g>
    <polyline style="fill: none; fill-opacity:0; stroke-width: 2; stroke: #000000" points="840,250 840,250 840,315 780.527,315 "/>
    <polygon style="fill: #000000" points="773.027,315 783.027,311.5 780.527,315 783.027,318.5 "/>
    <polygon style="fill: none; fill-opacity:0; stroke-width: 2; stroke: #000000" points="773.027,315 783.027,311.5 780.527,315 783.027,318.5 "/>
  </g>
  <g>
    <polygon style="fill: #ffffff" points="804.559,230 890,230 875.441,270 790,270 "/>
    <polygon style="fill: none; fill-opacity:0; stroke-width: 2; stroke: #000000" points="804.559,230 890,230 875.441,270 790,270 "/>
    <text font-size="10.16" style="fill: #000000;text-anchor:middle;font-family:Liberation Serif;font-style:normal;font-weight:normal" x="840" y="246.4">
      <tspan x="840" y="246.4">Отображение</tspan>
      <tspan x="840" y="259.1">ошибки</tspan>
    </text>
  </g>
  <g>
    <polyline style="fill: none; fill-opacity:0; stroke-width: 2; stroke: #000000" points="730,130.984 730,130.984 730,149.473 "/>
    <polygon style="fill: #000000" points="730,156.973 726.5,146.973 730,149.473 733.5,146.973 "/>
    <polygon style="fill: none; fill-opacity:0; stroke-width: 2; stroke: #000000" points="730,156.973 726.5,146.973 730,149.473 733.5,146.973 "/>
  </g>
  <text font-size="11.2889" style="fill: #000000;text-anchor:start;font-family:Liberation Serif;font-style:normal;font-weight:normal" x="460" y="90">
    <tspan x="460" y="90">да</tspan>
  </text>
  <text font-size="11.2889" style="fill: #000000;text-anchor:start;font-family:Liberation Serif;font-style:normal;font-weight:normal" x="410" y="390">
    <tspan x="410" y="390">да</tspan>
  </text>
  <text font-size="11.2889" style="fill: #000000;text-anchor:start;font-family:Liberation Serif;font-style:normal;font-weight:normal" x="570" y="230">
    <tspan x="570" y="230">да</tspan>
  </text>
  <text font-size="11.2889" style="fill: #000000;text-anchor:start;font-family:Liberation Serif;font-style:normal;font-weight:normal" x="570" y="140">
    <tspan x="570" y="140">да</tspan>
  </text>
  <text font-size="11.2889" style="fill: #000000;text-anchor:start;font-family:Liberation Serif;font-style:normal;font-weight:normal" x="740" y="140">
    <tspan x="740" y="140">да</tspan>
  </text>
  <text font-size="11.2889" style="fill: #000000;text-anchor:start;font-family:Liberation Serif;font-style:normal;font-weight:normal" x="410" y="140">
    <tspan x="410" y="140">нет</tspan>
  </text>
  <text font-size="11.2889" style="fill: #000000;text-anchor:start;font-family:Liberation Serif;font-style:normal;font-weight:normal" x="330" y="340">
    <tspan x="330" y="340">нет</tspan>
  </text>
  <text font-size="11.2889" style="fill: #000000;text-anchor:start;font-family:Liberation Serif;font-style:normal;font-weight:normal" x="620" y="180">
    <tspan x="620" y="180">нет</tspan>
  </text>
  <text font-size="11.2889" style="fill: #000000;text-anchor:start;font-family:Liberation Serif;font-style:normal;font-weight:normal" x="620" y="90">
    <tspan x="620" y="90">нет</tspan>
  </text>
  <text font-size="11.2889" style="fill: #000000;text-anchor:start;font-family:Liberation Serif;font-style:normal;font-weight:normal" x="790" y="90">
    <tspan x="790" y="90">нет</tspan>
  </text>
  <line style="fill: none; fill-opacity:0; stroke-width: 2; stroke-dasharray: 10; stroke: #000000" x1="602.721" y1="30" x2="650.988" y2="30.0722"/>
  <g>
    <text font-size="12.8" style="fill: #000000;text-anchor:start;font-family:Liberation Serif;font-style:normal;font-weight:normal" x="658.988" y="26.0722">
      <tspan x="658.988" y="26.0722">Например: экран успеваемости,</tspan>
      <tspan x="658.988" y="42.0722">расписание и т.д.</tspan>
    </text>
    <g>
      <line style="fill: none; fill-opacity:0; stroke-width: 2; stroke: #000000" x1="650.988" y1="6.07224" x2="650.988" y2="54.0722"/>
      <line style="fill: none; fill-opacity:0; stroke-width: 2; stroke: #000000" x1="650.988" y1="6.07224" x2="666.988" y2="6.07224"/>
      <line style="fill: none; fill-opacity:0; stroke-width: 2; stroke: #000000" x1="650.988" y1="54.0722" x2="666.988" y2="54.0722"/>
    </g>
  </g>
</svg>
