<?xml version="1.0" encoding="UTF-8" standalone="no"?>
<!DOCTYPE svg PUBLIC "-//W3C//DTD SVG 1.0//EN" "http://www.w3.org/TR/2001/PR-SVG-20010719/DTD/svg10.dtd">
<svg width="31cm" height="29cm" viewBox="618 14 603 567" xmlns="http://www.w3.org/2000/svg" xmlns:xlink="http://www.w3.org/1999/xlink">
  <g>
    <path style="fill: #ffffff" d="M 894.286 220 L 965.714,220 C 976.429,230 980,235 980,245 C 980,255 976.429,260 965.714,270 L 894.286,270 C 883.571,260 880,255 880,245 C 880,235 883.571,230 894.286,220z"/>
    <path style="fill: none; fill-opacity:0; stroke-width: 2; stroke: #000000" d="M 894.286 220 L 965.714,220 C 976.429,230 980,235 980,245 C 980,255 976.429,260 965.714,270 L 894.286,270 C 883.571,260 880,255 880,245 C 880,235 883.571,230 894.286,220"/>
    <path style="fill: none; fill-opacity:0; stroke-width: 2; stroke: #000000" d="M 965.714 220 C 955,230 951.429,235 951.429,245 C 951.429,255 955,260 965.714,270"/>
    <text font-size="12.8" style="fill: #000000;text-anchor:middle;font-family:Liberation Serif;font-style:normal;font-weight:normal" x="922.857" y="241">
      <tspan x="922.857" y="241">База</tspan>
      <tspan x="922.857" y="257">данных</tspan>
    </text>
  </g>
  <line style="fill: none; fill-opacity:0; stroke-width: 2; stroke-dasharray: 10; stroke: #000000" x1="710" y1="50" x2="760" y2="50"/>
  <text font-size="12.7998" style="fill: #000000;text-anchor:start;font-family:sans-serif;font-style:normal;font-weight:normal" x="770" y="0">
    <tspan x="770" y="0"></tspan>
  </text>
  <g>
    <path style="fill: #ffffff" d="M 620 30 L 720,30 L 700,70 L 640,70 L 620,30z"/>
    <path style="fill: none; fill-opacity:0; stroke-width: 2; stroke: #000000" d="M 620 30 L 720,30 L 700,70 L 640,70 L 620,30"/>
    <text font-size="11.2889" style="fill: #000000;text-anchor:middle;font-family:Liberation Serif;font-style:normal;font-weight:normal" x="670" y="46.4722">
      <tspan x="670" y="46.4722">Запрос</tspan>
      <tspan x="670" y="60.5833">данных</tspan>
    </text>
  </g>
  <g>
    <text font-size="12.8" style="fill: #000000;text-anchor:start;font-family:Liberation Serif;font-style:normal;font-weight:normal" x="770" y="38">
      <tspan x="770" y="38">Например: список предметов,</tspan>
      <tspan x="770" y="54">текущая успеваемость, долги,</tspan>
      <tspan x="770" y="70">расписание и т.д.</tspan>
    </text>
    <g>
      <line style="fill: none; fill-opacity:0; stroke-width: 2; stroke: #000000" x1="760" y1="15" x2="760" y2="85"/>
      <line style="fill: none; fill-opacity:0; stroke-width: 2; stroke: #000000" x1="760" y1="15" x2="780" y2="15"/>
      <line style="fill: none; fill-opacity:0; stroke-width: 2; stroke: #000000" x1="760" y1="85" x2="780" y2="85"/>
    </g>
  </g>
  <g>
    <rect style="fill: #ffffff" x="620" y="100" width="100" height="40"/>
    <rect style="fill: none; fill-opacity:0; stroke-width: 2; stroke: #000000" x="620" y="100" width="100" height="40"/>
    <text font-size="11.2889" style="fill: #000000;text-anchor:middle;font-family:Liberation Serif;font-style:normal;font-weight:normal" x="670" y="115.989">
      <tspan x="670" y="115.989">Проверка наличия</tspan>
      <tspan x="670" y="130.1">данных в памяти</tspan>
    </text>
  </g>
  <g>
    <rect style="fill: #ffffff" x="1120" y="220" width="100" height="50"/>
    <rect style="fill: none; fill-opacity:0; stroke-width: 2; stroke: #000000" x="1120" y="220" width="100" height="50"/>
    <line style="fill: none; fill-opacity:0; stroke-width: 2; stroke: #000000" x1="1130" y1="220" x2="1130" y2="270"/>
    <line style="fill: none; fill-opacity:0; stroke-width: 2; stroke: #000000" x1="1120" y1="225" x2="1220" y2="225"/>
    <text font-size="12.8" style="fill: #000000;text-anchor:middle;font-family:Liberation Serif;font-style:normal;font-weight:normal" x="1175" y="243.5">
      <tspan x="1175" y="243.5">Хранилище</tspan>
      <tspan x="1175" y="259.5">в памяти</tspan>
    </text>
  </g>
  <g>
    <rect style="fill: #ffffff" x="620" y="170" width="100" height="40"/>
    <rect style="fill: none; fill-opacity:0; stroke-width: 2; stroke: #000000" x="620" y="170" width="100" height="40"/>
    <text font-size="11.2889" style="fill: #000000;text-anchor:middle;font-family:Liberation Serif;font-style:normal;font-weight:normal" x="670" y="185.989">
      <tspan x="670" y="185.989">Проверка наличия</tspan>
      <tspan x="670" y="200.1">данных в БД </tspan>
    </text>
  </g>
  <g>
    <polygon style="fill: #ffffff" points="894.559,300 980,300 965.441,340 880,340 "/>
    <polygon style="fill: none; fill-opacity:0; stroke-width: 2; stroke: #000000" points="894.559,300 980,300 965.441,340 880,340 "/>
    <text font-size="11.2889" style="fill: #000000;text-anchor:middle;font-family:Liberation Serif;font-style:normal;font-weight:normal" x="930" y="315.989">
      <tspan x="930" y="315.989">Данные</tspan>
      <tspan x="930" y="330.1">из БД</tspan>
    </text>
  </g>
  <g>
    <rect style="fill: #ffffff" x="1000" y="300" width="100" height="40"/>
    <rect style="fill: none; fill-opacity:0; stroke-width: 2; stroke: #000000" x="1000" y="300" width="100" height="40"/>
    <text font-size="11.2889" style="fill: #000000;text-anchor:middle;font-family:Liberation Serif;font-style:normal;font-weight:normal" x="1050" y="315.989">
      <tspan x="1050" y="315.989">Сохранение</tspan>
      <tspan x="1050" y="330.1">данных в память</tspan>
    </text>
  </g>
  <g>
    <rect style="fill: #ffffff" x="620" y="240" width="100" height="40"/>
    <rect style="fill: none; fill-opacity:0; stroke-width: 2; stroke: #000000" x="620" y="240" width="100" height="40"/>
    <text font-size="11.2889" style="fill: #000000;text-anchor:middle;font-family:Liberation Serif;font-style:normal;font-weight:normal" x="670" y="255.989">
      <tspan x="670" y="255.989">Получение</tspan>
      <tspan x="670" y="270.1">данных из API</tspan>
    </text>
  </g>
  <g>
    <line style="fill: none; fill-opacity:0; stroke-width: 2; stroke: #000000" x1="670" y1="280" x2="660" y2="310"/>
    <line style="fill: none; fill-opacity:0; stroke-width: 2; stroke: #000000" x1="660" y1="310" x2="680" y2="300"/>
    <line style="fill: none; fill-opacity:0; stroke-width: 2; stroke: #000000" x1="680" y1="300" x2="670" y2="330"/>
  </g>
  <g>
    <polygon style="fill: #ffffff" points="634.559,330 720,330 705.441,370 620,370 "/>
    <polygon style="fill: none; fill-opacity:0; stroke-width: 2; stroke: #000000" points="634.559,330 720,330 705.441,370 620,370 "/>
    <text font-size="10.16" style="fill: #000000;text-anchor:middle;font-family:Liberation Serif;font-style:normal;font-weight:normal" x="670" y="346.4">
      <tspan x="670" y="346.4">Данные из API</tspan>
      <tspan x="670" y="359.1">в формате JSON</tspan>
    </text>
  </g>
  <g>
    <rect style="fill: #ffffff" x="620" y="400" width="100" height="40"/>
    <rect style="fill: none; fill-opacity:0; stroke-width: 2; stroke: #000000" x="620" y="400" width="100" height="40"/>
    <text font-size="11.2889" style="fill: #000000;text-anchor:middle;font-family:Liberation Serif;font-style:normal;font-weight:normal" x="670" y="415.989">
      <tspan x="670" y="415.989">Преобразование в</tspan>
      <tspan x="670" y="430.1">локальную модель</tspan>
    </text>
  </g>
  <g>
    <rect style="fill: #ffffff" x="880" y="400" width="100.55" height="40"/>
    <rect style="fill: none; fill-opacity:0; stroke-width: 2; stroke: #000000" x="880" y="400" width="100.55" height="40"/>
    <text font-size="10.16" style="fill: #000000;text-anchor:middle;font-family:Liberation Serif;font-style:normal;font-weight:normal" x="930.275" y="416.4">
      <tspan x="930.275" y="416.4">Преобразование в</tspan>
      <tspan x="930.275" y="429.1">модель отображения</tspan>
    </text>
  </g>
  <g>
    <polygon style="fill: #ffffff" points="894.559,470 980,470 965.441,510 880,510 "/>
    <polygon style="fill: none; fill-opacity:0; stroke-width: 2; stroke: #000000" points="894.559,470 980,470 965.441,510 880,510 "/>
    <text font-size="11.2889" style="fill: #000000;text-anchor:middle;font-family:Liberation Serif;font-style:normal;font-weight:normal" x="930" y="485.989">
      <tspan x="930" y="485.989">Модель</tspan>
      <tspan x="930" y="500.1">отображения</tspan>
    </text>
  </g>
  <g>
    <ellipse style="fill: #ffffff" cx="800" cy="485" rx="15" ry="15"/>
    <ellipse style="fill: none; fill-opacity:0; stroke-width: 2; stroke: #000000" cx="800" cy="485" rx="15" ry="15"/>
    <text font-size="11.2889" style="fill: #000000;text-anchor:middle;font-family:Liberation Serif;font-style:normal;font-weight:normal" x="800" y="488.044">
      <tspan x="800" y="488.044">1</tspan>
    </text>
  </g>
  <g>
    <ellipse style="fill: #ffffff" cx="1050" cy="385" rx="15" ry="15"/>
    <ellipse style="fill: none; fill-opacity:0; stroke-width: 2; stroke: #000000" cx="1050" cy="385" rx="15" ry="15"/>
    <text font-size="11.2889" style="fill: #000000;text-anchor:middle;font-family:Liberation Serif;font-style:normal;font-weight:normal" x="1050" y="388.044">
      <tspan x="1050" y="388.044">1</tspan>
    </text>
  </g>
  <polyline style="fill: none; fill-opacity:0; stroke-width: 2; stroke: #000000" points="670,371.005 670,372.005 670,399 670,400 "/>
  <polyline style="fill: none; fill-opacity:0; stroke-width: 2; stroke: #000000" points="670,210 670,211 670,239 670,240 "/>
  <polyline style="fill: none; fill-opacity:0; stroke-width: 2; stroke: #000000" points="670,140 670,141 670,169 670,170 "/>
  <polyline style="fill: none; fill-opacity:0; stroke-width: 2; stroke: #000000" points="670,70 670,71 670,99 670,100 "/>
  <polyline style="fill: none; fill-opacity:0; stroke-width: 2; stroke: #000000" points="720,190 930,190 930,220 "/>
  <polyline style="fill: none; fill-opacity:0; stroke-width: 2; stroke: #000000" points="720,120 1170,120 1170,220 "/>
  <polyline style="fill: none; fill-opacity:0; stroke-width: 2; stroke: #000000" points="930,270 930,271 930,297.995 930,298.995 "/>
  <polyline style="fill: none; fill-opacity:0; stroke-width: 2; stroke: #000000" points="1170,270 1170,271 1170,297.995 1170,298.995 "/>
  <g>
    <polyline style="fill: none; fill-opacity:0; stroke-width: 2; stroke: #000000" points="1050,300 1050,300 1050,245 1108.47,245 "/>
    <polygon style="fill: #000000" points="1115.97,245 1105.97,248.5 1108.47,245 1105.97,241.5 "/>
    <polygon style="fill: none; fill-opacity:0; stroke-width: 2; stroke: #000000" points="1115.97,245 1105.97,248.5 1108.47,245 1105.97,241.5 "/>
  </g>
  <g>
    <polyline style="fill: none; fill-opacity:0; stroke-width: 2; stroke: #000000" points="1050,370 1050,370 1050,350.527 "/>
    <polygon style="fill: #000000" points="1050,343.027 1053.5,353.027 1050,350.527 1046.5,353.027 "/>
    <polygon style="fill: none; fill-opacity:0; stroke-width: 2; stroke: #000000" points="1050,343.027 1053.5,353.027 1050,350.527 1046.5,353.027 "/>
  </g>
  <polyline style="fill: none; fill-opacity:0; stroke-width: 2; stroke: #000000" points="973.361,320 974.361,320 997.994,320 998.994,320 "/>
  <polyline style="fill: none; fill-opacity:0; stroke-width: 2; stroke: #000000" points="721.006,420 722.006,420 755.639,420 756.639,420 "/>
  <polyline style="fill: none; fill-opacity:0; stroke-width: 2; stroke: #000000" points="930.275,441.005 930.275,455 930,455 930,468.995 "/>
  <polyline style="fill: none; fill-opacity:0; stroke-width: 2; stroke: #000000" points="930.275,400 930.275,370.503 930,370.503 930,341.005 "/>
  <g>
    <path style="fill: #ffffff" d="M 894.286 540 L 965.714,540 C 976.429,548 980,552 980,560 C 980,568 976.429,572 965.714,580 L 894.286,580 L 880,560 L 894.286,540z"/>
    <path style="fill: none; fill-opacity:0; stroke-width: 2; stroke: #000000" d="M 894.286 540 L 965.714,540 C 976.429,548 980,552 980,560 C 980,568 976.429,572 965.714,580 L 894.286,580 L 880,560 L 894.286,540"/>
    <text font-size="11.2889" style="fill: #000000;text-anchor:middle;font-family:Liberation Serif;font-style:normal;font-weight:normal" x="930" y="556.472">
      <tspan x="930" y="556.472">Отображение</tspan>
      <tspan x="930" y="570.583">данных</tspan>
    </text>
  </g>
  <polyline style="fill: none; fill-opacity:0; stroke-width: 2; stroke: #000000" points="930,540 930,539 930,512.005 930,511.005 "/>
  <g>
    <rect style="fill: #ffffff" x="750" y="300" width="100" height="40"/>
    <rect style="fill: none; fill-opacity:0; stroke-width: 2; stroke: #000000" x="750" y="300" width="100" height="40"/>
    <text font-size="11.2889" style="fill: #000000;text-anchor:middle;font-family:Liberation Serif;font-style:normal;font-weight:normal" x="800" y="315.989">
      <tspan x="800" y="315.989">Сохранение</tspan>
      <tspan x="800" y="330.1">данных в БД</tspan>
    </text>
  </g>
  <polyline style="fill: none; fill-opacity:0; stroke-width: 2; stroke: #000000" points="800,470 800,455.503 800,455.503 800,441.005 "/>
  <g>
    <polyline style="fill: none; fill-opacity:0; stroke-width: 2; stroke: #000000" points="1170,320 1170,320 1170,420 991.077,420 "/>
    <polygon style="fill: #000000" points="983.577,420 993.577,416.5 991.077,420 993.577,423.5 "/>
    <polygon style="fill: none; fill-opacity:0; stroke-width: 2; stroke: #000000" points="983.577,420 993.577,416.5 991.077,420 993.577,423.5 "/>
  </g>
  <g>
    <polygon style="fill: #ffffff" points="1134.56,300 1220,300 1205.44,340 1120,340 "/>
    <polygon style="fill: none; fill-opacity:0; stroke-width: 2; stroke: #000000" points="1134.56,300 1220,300 1205.44,340 1120,340 "/>
    <text font-size="11.2889" style="fill: #000000;text-anchor:middle;font-family:Liberation Serif;font-style:normal;font-weight:normal" x="1170" y="315.989">
      <tspan x="1170" y="315.989">Данные</tspan>
      <tspan x="1170" y="330.1">из памяти</tspan>
    </text>
  </g>
  <g>
    <polyline style="fill: none; fill-opacity:0; stroke-width: 2; stroke: #000000" points="800,300 800,300 800,245 869.489,245 "/>
    <polygon style="fill: #000000" points="876.989,245 866.989,248.5 869.489,245 866.989,241.5 "/>
    <polygon style="fill: none; fill-opacity:0; stroke-width: 2; stroke: #000000" points="876.989,245 866.989,248.5 869.489,245 866.989,241.5 "/>
  </g>
  <g>
    <polyline style="fill: none; fill-opacity:0; stroke-width: 2; stroke: #000000" points="800,420 800,420 800,350.527 "/>
    <polygon style="fill: #000000" points="800,343.027 803.5,353.027 800,350.527 796.5,353.027 "/>
    <polygon style="fill: none; fill-opacity:0; stroke-width: 2; stroke: #000000" points="800,343.027 803.5,353.027 800,350.527 796.5,353.027 "/>
  </g>
  <g>
    <polygon style="fill: #ffffff" points="764.559,400 850,400 835.441,440 750,440 "/>
    <polygon style="fill: none; fill-opacity:0; stroke-width: 2; stroke: #000000" points="764.559,400 850,400 835.441,440 750,440 "/>
    <text font-size="11.2889" style="fill: #000000;text-anchor:middle;font-family:Liberation Serif;font-style:normal;font-weight:normal" x="800" y="415.989">
      <tspan x="800" y="415.989">Локальная</tspan>
      <tspan x="800" y="430.1">модель</tspan>
    </text>
  </g>
</svg>
