<?xml version="1.0" encoding="UTF-8" standalone="no"?>
<!DOCTYPE svg PUBLIC "-//W3C//DTD SVG 1.0//EN" "http://www.w3.org/TR/2001/PR-SVG-20010719/DTD/svg10.dtd">
<svg width="24cm" height="34cm" viewBox="5 4 476 676" xmlns="http://www.w3.org/2000/svg" xmlns:xlink="http://www.w3.org/1999/xlink">
  <g>
    <rect style="fill: #ffffff" x="5.66" y="5.744" width="84" height="22.6389"/>
    <rect style="fill: none; fill-opacity:0; stroke-width: 1; stroke: #000000" x="5.66" y="5.744" width="84" height="22.6389"/>
    <text font-size="14.1111" style="fill: #000000;text-anchor:middle;font-family:Liberation Serif;font-style:normal;font-weight:normal" x="47.66" y="20.844">
      <tspan x="47.66" y="20.844">ГРУППА</tspan>
    </text>
  </g>
  <g>
    <rect style="fill: #ffffff" x="61.66" y="73.744" width="68" height="21"/>
    <rect style="fill: none; fill-opacity:0; stroke-width: 1; stroke-dasharray: 6; stroke: #000000" x="61.66" y="73.744" width="68" height="21"/>
    <text font-size="12.8" style="fill: #000000;text-anchor:middle;font-family:Liberation Serif;font-style:normal;font-weight:normal" x="95.66" y="87.694">
      <tspan x="95.66" y="87.694">Студент</tspan>
    </text>
  </g>
  <g>
    <polyline style="fill: none; fill-opacity:0; stroke-width: 1; stroke: #000000" points="26.66,28.3829 26.66,84.244 41.66,84.244 "/>
    <polygon style="fill: #000000" points="51.66,86.744 61.66,84.244 51.66,81.744 "/>
    <polygon style="fill: #000000" points="41.66,86.744 51.66,84.244 41.66,81.744 "/>
  </g>
  <text font-size="9.59556" style="fill: #000000;text-anchor:start;font-family:Liberation Serif;font-style:italic;font-weight:normal" x="33.66" y="77.744">
    <tspan x="33.66" y="77.744">D</tspan>
  </text>
  <g>
    <rect style="fill: #ffffff" x="279.075" y="462.623" width="84" height="22.6389"/>
    <rect style="fill: none; fill-opacity:0; stroke-width: 1; stroke: #000000" x="279.075" y="462.623" width="84" height="22.6389"/>
    <text font-size="14.1111" style="fill: #000000;text-anchor:middle;font-family:Liberation Serif;font-style:normal;font-weight:normal" x="321.075" y="477.723">
      <tspan x="321.075" y="477.723">СТУДЕНТ</tspan>
    </text>
  </g>
  <g>
    <rect style="fill: #ffffff" x="334.931" y="498.623" width="145.069" height="21"/>
    <rect style="fill: none; fill-opacity:0; stroke-width: 1; stroke-dasharray: 6; stroke: #000000" x="334.931" y="498.623" width="145.069" height="21"/>
    <text font-size="12.8" style="fill: #000000;text-anchor:middle;font-family:Liberation Serif;font-style:normal;font-weight:normal" x="407.466" y="512.573">
      <tspan x="407.466" y="512.573">Регистрационный номер</tspan>
    </text>
  </g>
  <g>
    <polyline style="fill: none; fill-opacity:0; stroke-width: 1; stroke: #000000" points="300.075,485.262 300.075,509.123 326.431,509.123 "/>
    <polygon style="fill: #000000" points="326.431,511.123 334.431,509.123 326.431,507.123 "/>
    <polygon style="fill: none; fill-opacity:0; stroke-width: 1; stroke: #000000" points="326.431,511.123 334.431,509.123 326.431,507.123 "/>
  </g>
  <text font-size="9.59556" style="fill: #000000;text-anchor:start;font-family:Liberation Serif;font-style:italic;font-weight:normal" x="307.075" y="502.623">
    <tspan x="307.075" y="502.623">S</tspan>
  </text>
  <g>
    <rect style="fill: #ffffff" x="334.931" y="530.623" width="44.1445" height="21"/>
    <rect style="fill: none; fill-opacity:0; stroke-width: 1; stroke-dasharray: 6; stroke: #000000" x="334.931" y="530.623" width="44.1445" height="21"/>
    <text font-size="12.8" style="fill: #000000;text-anchor:middle;font-family:Liberation Serif;font-style:normal;font-weight:normal" x="357.004" y="544.573">
      <tspan x="357.004" y="544.573">ФИО</tspan>
    </text>
  </g>
  <g>
    <polyline style="fill: none; fill-opacity:0; stroke-width: 1; stroke: #000000" points="300.075,485.262 300.075,541.123 326.431,541.123 "/>
    <polygon style="fill: #000000" points="326.431,543.123 334.431,541.123 326.431,539.123 "/>
    <polygon style="fill: none; fill-opacity:0; stroke-width: 1; stroke: #000000" points="326.431,543.123 334.431,541.123 326.431,539.123 "/>
  </g>
  <text font-size="9.59556" style="fill: #000000;text-anchor:start;font-family:Liberation Serif;font-style:italic;font-weight:normal" x="307.075" y="534.623">
    <tspan x="307.075" y="534.623">D</tspan>
  </text>
  <g>
    <rect style="fill: #ffffff" x="335.076" y="562.622" width="56" height="21"/>
    <rect style="fill: none; fill-opacity:0; stroke-width: 1; stroke-dasharray: 6; stroke: #000000" x="335.076" y="562.622" width="56" height="21"/>
    <text font-size="12.8" style="fill: #000000;text-anchor:middle;font-family:Liberation Serif;font-style:normal;font-weight:normal" x="363.076" y="576.572">
      <tspan x="363.076" y="576.572">Группа</tspan>
    </text>
  </g>
  <g>
    <polyline style="fill: none; fill-opacity:0; stroke-width: 1; stroke: #000000" points="300.075,485.262 300.075,573.122 326.576,573.122 "/>
    <polygon style="fill: #000000" points="326.576,575.122 334.576,573.122 326.576,571.122 "/>
    <polygon style="fill: none; fill-opacity:0; stroke-width: 1; stroke: #000000" points="326.576,575.122 334.576,573.122 326.576,571.122 "/>
  </g>
  <g>
    <rect style="fill: #ffffff" x="61.66" y="105.744" width="140" height="21"/>
    <rect style="fill: none; fill-opacity:0; stroke-width: 1; stroke-dasharray: 6; stroke: #000000" x="61.66" y="105.744" width="140" height="21"/>
    <text font-size="12.8" style="fill: #000000;text-anchor:middle;font-family:Liberation Serif;font-style:normal;font-weight:normal" x="131.66" y="119.694">
      <tspan x="131.66" y="119.694">Направление обучения</tspan>
    </text>
  </g>
  <g>
    <polyline style="fill: none; fill-opacity:0; stroke-width: 1; stroke: #000000" points="26.66,28.3829 26.66,116.244 53.16,116.244 "/>
    <polygon style="fill: #000000" points="53.16,118.244 61.16,116.244 53.16,114.244 "/>
    <polygon style="fill: none; fill-opacity:0; stroke-width: 1; stroke: #000000" points="53.16,118.244 61.16,116.244 53.16,114.244 "/>
  </g>
  <text font-size="9.59556" style="fill: #000000;text-anchor:start;font-family:Liberation Serif;font-style:italic;font-weight:normal" x="307.075" y="566.622">
    <tspan x="307.075" y="566.622">D</tspan>
  </text>
  <text font-size="9.59556" style="fill: #000000;text-anchor:start;font-family:Liberation Serif;font-style:italic;font-weight:normal" x="33.66" y="109.744">
    <tspan x="33.66" y="109.744">S</tspan>
  </text>
  <g>
    <rect style="fill: #ffffff" x="335.076" y="626.622" width="92" height="21"/>
    <rect style="fill: none; fill-opacity:0; stroke-width: 1; stroke-dasharray: 6; stroke: #000000" x="335.076" y="626.622" width="92" height="21"/>
    <text font-size="12.8" style="fill: #000000;text-anchor:middle;font-family:Liberation Serif;font-style:normal;font-weight:normal" x="381.076" y="640.572">
      <tspan x="381.076" y="640.572">Учебный план</tspan>
    </text>
  </g>
  <g>
    <rect style="fill: #ffffff" x="61.66" y="41.744" width="140" height="21"/>
    <rect style="fill: none; fill-opacity:0; stroke-width: 1; stroke-dasharray: 6; stroke: #000000" x="61.66" y="41.744" width="140" height="21"/>
    <text font-size="12.8" style="fill: #000000;text-anchor:middle;font-family:Liberation Serif;font-style:normal;font-weight:normal" x="131.66" y="55.694">
      <tspan x="131.66" y="55.694">Идентификатор группы</tspan>
    </text>
  </g>
  <g>
    <polyline style="fill: none; fill-opacity:0; stroke-width: 1; stroke: #000000" points="300.075,485.262 300.075,637.122 315.076,637.122 "/>
    <polygon style="fill: #000000" points="325.076,639.622 335.076,637.122 325.076,634.622 "/>
    <polygon style="fill: #000000" points="315.076,639.622 325.076,637.122 315.076,634.622 "/>
  </g>
  <text font-size="9.59556" style="fill: #000000;text-anchor:start;font-family:Liberation Serif;font-style:italic;font-weight:normal" x="307.075" y="598.622">
    <tspan x="307.075" y="598.622">D</tspan>
  </text>
  <text font-size="12.8" style="fill: #000000;text-anchor:start;font-family:sans-serif;font-style:normal;font-weight:normal" x="131.66" y="52.244">
    <tspan x="131.66" y="52.244"></tspan>
  </text>
  <g>
    <polyline style="fill: none; fill-opacity:0; stroke-width: 1; stroke: #000000" points="26.66,28.3829 26.66,52.244 53.16,52.244 "/>
    <polygon style="fill: #000000" points="53.16,54.244 61.16,52.244 53.16,50.244 "/>
    <polygon style="fill: none; fill-opacity:0; stroke-width: 1; stroke: #000000" points="53.16,54.244 61.16,52.244 53.16,50.244 "/>
  </g>
  <text font-size="9.59556" style="fill: #000000;text-anchor:start;font-family:Liberation Serif;font-style:italic;font-weight:normal" x="33.66" y="45.744">
    <tspan x="33.66" y="45.744">S</tspan>
  </text>
  <g>
    <rect style="fill: #ffffff" x="229.66" y="25.744" width="70.5701" height="21"/>
    <rect style="fill: none; fill-opacity:0; stroke-width: 1; stroke-dasharray: 6; stroke: #000000" x="229.66" y="25.744" width="70.5701" height="21"/>
    <text font-size="12.8" style="fill: #000000;text-anchor:middle;font-family:Liberation Serif;font-style:normal;font-weight:normal" x="264.945" y="39.694">
      <tspan x="264.945" y="39.694">Факультет</tspan>
    </text>
  </g>
  <g>
    <rect style="fill: #ffffff" x="229.66" y="57.744" width="90.7149" height="21"/>
    <rect style="fill: none; fill-opacity:0; stroke-width: 1; stroke-dasharray: 6; stroke: #000000" x="229.66" y="57.744" width="90.7149" height="21"/>
    <text font-size="12.8" style="fill: #000000;text-anchor:middle;font-family:Liberation Serif;font-style:normal;font-weight:normal" x="275.017" y="71.694">
      <tspan x="275.017" y="71.694">Номер группы</tspan>
    </text>
  </g>
  <polyline style="fill: none; fill-opacity:0; stroke-width: 1; stroke: #000000" points="201.66,52.244 215.66,52.244 215.66,36.244 229.66,36.244 "/>
  <polyline style="fill: none; fill-opacity:0; stroke-width: 1; stroke: #000000" points="201.66,52.244 215.66,52.244 215.66,68.244 229.66,68.244 "/>
  <g>
    <rect style="fill: #ffffff" x="335.076" y="594.622" width="96.1" height="21"/>
    <rect style="fill: none; fill-opacity:0; stroke-width: 1; stroke-dasharray: 6; stroke: #000000" x="335.076" y="594.622" width="96.1" height="21"/>
    <text font-size="12.8" style="fill: #000000;text-anchor:middle;font-family:Liberation Serif;font-style:normal;font-weight:normal" x="383.126" y="608.572">
      <tspan x="383.126" y="608.572">Задолженность</tspan>
    </text>
  </g>
  <g>
    <polyline style="fill: none; fill-opacity:0; stroke-width: 1; stroke-dasharray: 4; stroke: #000000" points="300.075,485.262 300.075,605.122 315.076,605.122 "/>
    <polygon style="fill: #000000" points="325.076,607.622 335.076,605.122 325.076,602.622 "/>
    <polygon style="fill: #000000" points="315.076,607.622 325.076,605.122 315.076,602.622 "/>
  </g>
  <text font-size="9.59556" style="fill: #000000;text-anchor:start;font-family:Liberation Serif;font-style:italic;font-weight:normal" x="307.075" y="630.622">
    <tspan x="307.075" y="630.622">D</tspan>
  </text>
  <g>
    <rect style="fill: #ffffff" x="335.076" y="658.622" width="109.75" height="21"/>
    <rect style="fill: none; fill-opacity:0; stroke-width: 1; stroke-dasharray: 6; stroke: #000000" x="335.076" y="658.622" width="109.75" height="21"/>
    <text font-size="12.8" style="fill: #000000;text-anchor:middle;font-family:Liberation Serif;font-style:normal;font-weight:normal" x="389.951" y="672.572">
      <tspan x="389.951" y="672.572">Текущий семестр</tspan>
    </text>
  </g>
  <g>
    <polyline style="fill: none; fill-opacity:0; stroke-width: 1; stroke: #000000" points="300.075,485.262 300.075,669.122 326.576,669.122 "/>
    <polygon style="fill: #000000" points="326.576,671.122 334.576,669.122 326.576,667.122 "/>
    <polygon style="fill: none; fill-opacity:0; stroke-width: 1; stroke: #000000" points="326.576,671.122 334.576,669.122 326.576,667.122 "/>
  </g>
  <text font-size="9.59556" style="fill: #000000;text-anchor:start;font-family:Liberation Serif;font-style:italic;font-weight:normal" x="307.075" y="662.622">
    <tspan x="307.075" y="662.622">D</tspan>
  </text>
  <text font-size="9.59556" style="fill: #000000;text-anchor:start;font-family:Liberation Serif;font-style:italic;font-weight:normal" x="33.66" y="141.744">
    <tspan x="33.66" y="141.744">D</tspan>
  </text>
  <g>
    <rect style="fill: #ffffff" x="61.66" y="169.744" width="92" height="21"/>
    <rect style="fill: none; fill-opacity:0; stroke-width: 1; stroke-dasharray: 6; stroke: #000000" x="61.66" y="169.744" width="92" height="21"/>
    <text font-size="12.8" style="fill: #000000;text-anchor:middle;font-family:Liberation Serif;font-style:normal;font-weight:normal" x="107.66" y="183.694">
      <tspan x="107.66" y="183.694">Учебный план</tspan>
    </text>
  </g>
  <g>
    <polyline style="fill: none; fill-opacity:0; stroke-width: 1; stroke: #000000" points="26.66,28.3829 26.66,180.244 53.16,180.244 "/>
    <polygon style="fill: #000000" points="53.16,182.244 61.16,180.244 53.16,178.244 "/>
    <polygon style="fill: none; fill-opacity:0; stroke-width: 1; stroke: #000000" points="53.16,182.244 61.16,180.244 53.16,178.244 "/>
  </g>
  <text font-size="9.59556" style="fill: #000000;text-anchor:start;font-family:Liberation Serif;font-style:italic;font-weight:normal" x="33.66" y="173.744">
    <tspan x="33.66" y="173.744">S</tspan>
  </text>
  <g>
    <rect style="fill: #ffffff" x="289.314" y="107.34" width="128" height="22.6389"/>
    <rect style="fill: none; fill-opacity:0; stroke-width: 1; stroke: #000000" x="289.314" y="107.34" width="128" height="22.6389"/>
    <text font-size="14.1111" style="fill: #000000;text-anchor:middle;font-family:Liberation Serif;font-style:normal;font-weight:normal" x="353.314" y="122.44">
      <tspan x="353.314" y="122.44">ПЛАН УЧЕБНЫЙ</tspan>
    </text>
  </g>
  <g>
    <rect style="fill: #ffffff" x="5.66" y="205.744" width="80" height="22.6389"/>
    <rect style="fill: none; fill-opacity:0; stroke-width: 1; stroke: #000000" x="5.66" y="205.744" width="80" height="22.6389"/>
    <text font-size="14.1111" style="fill: #000000;text-anchor:middle;font-family:Liberation Serif;font-style:normal;font-weight:normal" x="45.66" y="220.844">
      <tspan x="45.66" y="220.844">ЗАНЯТИЕ</tspan>
    </text>
  </g>
  <g>
    <rect style="fill: #ffffff" x="172.692" y="169.744" width="116" height="22.6389"/>
    <rect style="fill: none; fill-opacity:0; stroke-width: 1; stroke: #000000" x="172.692" y="169.744" width="116" height="22.6389"/>
    <text font-size="14.1111" style="fill: #000000;text-anchor:middle;font-family:Liberation Serif;font-style:normal;font-weight:normal" x="230.692" y="184.844">
      <tspan x="230.692" y="184.844">ДИСЦИПЛИНА</tspan>
    </text>
  </g>
  <g>
    <rect style="fill: #ffffff" x="5.66" y="446.736" width="128" height="40.2778"/>
    <rect style="fill: none; fill-opacity:0; stroke-width: 1; stroke: #000000" x="5.66" y="446.736" width="128" height="40.2778"/>
    <text font-size="14.1111" style="fill: #000000;text-anchor:middle;font-family:Liberation Serif;font-style:normal;font-weight:normal" x="69.66" y="461.836">
      <tspan x="69.66" y="461.836">МЕРОПРИЯТИЕ</tspan>
      <tspan x="69.66" y="479.475">КОНТРОЛЬНОЕ</tspan>
    </text>
  </g>
  <text font-size="9.59556" style="fill: #000000;text-anchor:start;font-family:Liberation Serif;font-style:italic;font-weight:normal" x="329.314" y="147.34">
    <tspan x="329.314" y="147.34">S</tspan>
  </text>
  <g>
    <rect style="fill: #ffffff" x="354.83" y="175.892" width="64" height="21"/>
    <rect style="fill: none; fill-opacity:0; stroke-width: 1; stroke-dasharray: 6; stroke: #000000" x="354.83" y="175.892" width="64" height="21"/>
    <text font-size="12.8" style="fill: #000000;text-anchor:middle;font-family:Liberation Serif;font-style:normal;font-weight:normal" x="386.83" y="189.842">
      <tspan x="386.83" y="189.842">Семестр</tspan>
    </text>
  </g>
  <g>
    <polyline style="fill: none; fill-opacity:0; stroke-width: 1; stroke: #000000" points="321.314,129.979 321.314,186.392 346.33,186.392 "/>
    <polygon style="fill: #000000" points="346.33,188.392 354.33,186.392 346.33,184.392 "/>
    <polygon style="fill: none; fill-opacity:0; stroke-width: 1; stroke: #000000" points="346.33,188.392 354.33,186.392 346.33,184.392 "/>
  </g>
  <g>
    <rect style="fill: #ffffff" x="354.83" y="143.34" width="118.75" height="21"/>
    <rect style="fill: none; fill-opacity:0; stroke-width: 1; stroke-dasharray: 6; stroke: #000000" x="354.83" y="143.34" width="118.75" height="21"/>
    <text font-size="12.8" style="fill: #000000;text-anchor:middle;font-family:Liberation Serif;font-style:normal;font-weight:normal" x="414.205" y="157.29">
      <tspan x="414.205" y="157.29">Идентификатор УП</tspan>
    </text>
  </g>
  <g>
    <polyline style="fill: none; fill-opacity:0; stroke-width: 1; stroke: #000000" points="321.314,129.979 321.314,153.84 346.33,153.84 "/>
    <polygon style="fill: #000000" points="346.33,155.84 354.33,153.84 346.33,151.84 "/>
    <polygon style="fill: none; fill-opacity:0; stroke-width: 1; stroke: #000000" points="346.33,155.84 354.33,153.84 346.33,151.84 "/>
  </g>
  <text font-size="9.59556" style="fill: #000000;text-anchor:start;font-family:Liberation Serif;font-style:italic;font-weight:normal" x="329.314" y="179.892">
    <tspan x="329.314" y="179.892">S</tspan>
  </text>
  <g>
    <polyline style="fill: none; fill-opacity:0; stroke-width: 1; stroke: #000000" points="321.314,129.979 321.314,218.392 334.83,218.392 "/>
    <polygon style="fill: #000000" points="344.83,220.892 354.83,218.392 344.83,215.892 "/>
    <polygon style="fill: #000000" points="334.83,220.892 344.83,218.392 334.83,215.892 "/>
  </g>
  <g>
    <rect style="fill: #ffffff" x="354.83" y="207.892" width="88" height="21"/>
    <rect style="fill: none; fill-opacity:0; stroke-width: 1; stroke-dasharray: 6; stroke: #000000" x="354.83" y="207.892" width="88" height="21"/>
    <text font-size="12.8" style="fill: #000000;text-anchor:middle;font-family:Liberation Serif;font-style:normal;font-weight:normal" x="398.83" y="221.842">
      <tspan x="398.83" y="221.842">Дисциплина</tspan>
    </text>
  </g>
  <text font-size="9.59556" style="fill: #000000;text-anchor:start;font-family:Liberation Serif;font-style:italic;font-weight:normal" x="329.314" y="211.892">
    <tspan x="329.314" y="211.892">D</tspan>
  </text>
  <g>
    <rect style="fill: #ffffff" x="236.692" y="205.744" width="68" height="21"/>
    <rect style="fill: none; fill-opacity:0; stroke-width: 1; stroke-dasharray: 6; stroke: #000000" x="236.692" y="205.744" width="68" height="21"/>
    <text font-size="12.8" style="fill: #000000;text-anchor:middle;font-family:Liberation Serif;font-style:normal;font-weight:normal" x="270.692" y="219.694">
      <tspan x="270.692" y="219.694">Название</tspan>
    </text>
  </g>
  <g>
    <polyline style="fill: none; fill-opacity:0; stroke-width: 1; stroke: #000000" points="201.692,192.383 201.692,216.244 228.192,216.244 "/>
    <polygon style="fill: #000000" points="228.192,218.244 236.192,216.244 228.192,214.244 "/>
    <polygon style="fill: none; fill-opacity:0; stroke-width: 1; stroke: #000000" points="228.192,218.244 236.192,216.244 228.192,214.244 "/>
  </g>
  <g>
    <rect style="fill: #ffffff" x="236.692" y="237.744" width="100" height="21"/>
    <rect style="fill: none; fill-opacity:0; stroke-width: 1; stroke-dasharray: 6; stroke: #000000" x="236.692" y="237.744" width="100" height="21"/>
    <text font-size="12.8" style="fill: #000000;text-anchor:middle;font-family:Liberation Serif;font-style:normal;font-weight:normal" x="286.692" y="251.694">
      <tspan x="286.692" y="251.694">Преподаватель</tspan>
    </text>
  </g>
  <g>
    <polyline style="fill: none; fill-opacity:0; stroke-width: 1; stroke: #000000" points="201.692,192.383 201.692,248.244 216.692,248.244 "/>
    <polygon style="fill: #000000" points="226.692,250.744 236.692,248.244 226.692,245.744 "/>
    <polygon style="fill: #000000" points="216.692,250.744 226.692,248.244 216.692,245.744 "/>
  </g>
  <g>
    <rect style="fill: #ffffff" x="236.692" y="269.744" width="64" height="21"/>
    <rect style="fill: none; fill-opacity:0; stroke-width: 1; stroke-dasharray: 6; stroke: #000000" x="236.692" y="269.744" width="64" height="21"/>
    <text font-size="12.8" style="fill: #000000;text-anchor:middle;font-family:Liberation Serif;font-style:normal;font-weight:normal" x="268.692" y="283.694">
      <tspan x="268.692" y="283.694">Кафедра</tspan>
    </text>
  </g>
  <g>
    <polyline style="fill: none; fill-opacity:0; stroke-width: 1; stroke: #000000" points="201.692,192.383 201.692,280.244 228.192,280.244 "/>
    <polygon style="fill: #000000" points="228.192,282.244 236.192,280.244 228.192,278.244 "/>
    <polygon style="fill: none; fill-opacity:0; stroke-width: 1; stroke: #000000" points="228.192,282.244 236.192,280.244 228.192,278.244 "/>
  </g>
  <g>
    <rect style="fill: #ffffff" x="236.692" y="301.744" width="107.05" height="21"/>
    <rect style="fill: none; fill-opacity:0; stroke-width: 1; stroke-dasharray: 6; stroke: #000000" x="236.692" y="301.744" width="107.05" height="21"/>
    <text font-size="12.8" style="fill: #000000;text-anchor:middle;font-family:Liberation Serif;font-style:normal;font-weight:normal" x="290.217" y="315.694">
      <tspan x="290.217" y="315.694">Форма контроля</tspan>
    </text>
  </g>
  <g>
    <polyline style="fill: none; fill-opacity:0; stroke-width: 1; stroke: #000000" points="201.692,192.383 201.692,312.244 228.192,312.244 "/>
    <polygon style="fill: #000000" points="228.192,314.244 236.192,312.244 228.192,310.244 "/>
    <polygon style="fill: none; fill-opacity:0; stroke-width: 1; stroke: #000000" points="228.192,314.244 236.192,312.244 228.192,310.244 "/>
  </g>
  <text font-size="9.59556" style="fill: #000000;text-anchor:start;font-family:Liberation Serif;font-style:italic;font-weight:normal" x="208.692" y="241.744">
    <tspan x="208.692" y="241.744">D</tspan>
  </text>
  <text font-size="9.59556" style="fill: #000000;text-anchor:start;font-family:Liberation Serif;font-style:italic;font-weight:normal" x="208.692" y="209.744">
    <tspan x="208.692" y="209.744">S</tspan>
  </text>
  <text font-size="9.59556" style="fill: #000000;text-anchor:start;font-family:Liberation Serif;font-style:italic;font-weight:normal" x="208.692" y="273.744">
    <tspan x="208.692" y="273.744">S</tspan>
  </text>
  <text font-size="9.59556" style="fill: #000000;text-anchor:start;font-family:Liberation Serif;font-style:italic;font-weight:normal" x="208.692" y="305.744">
    <tspan x="208.692" y="305.744">S</tspan>
  </text>
  <g>
    <rect style="fill: #ffffff" x="236.692" y="333.744" width="157.4" height="21"/>
    <rect style="fill: none; fill-opacity:0; stroke-width: 1; stroke-dasharray: 6; stroke: #000000" x="236.692" y="333.744" width="157.4" height="21"/>
    <text font-size="12.8" style="fill: #000000;text-anchor:middle;font-family:Liberation Serif;font-style:normal;font-weight:normal" x="315.392" y="347.694">
      <tspan x="315.392" y="347.694">Контрольное мероприятие</tspan>
    </text>
  </g>
  <g>
    <polyline style="fill: none; fill-opacity:0; stroke-width: 1; stroke: #000000" points="201.692,192.383 201.692,344.244 216.692,344.244 "/>
    <polygon style="fill: #000000" points="226.692,346.744 236.692,344.244 226.692,341.744 "/>
    <polygon style="fill: #000000" points="216.692,346.744 226.692,344.244 216.692,341.744 "/>
  </g>
  <text font-size="9.59556" style="fill: #000000;text-anchor:start;font-family:Liberation Serif;font-style:italic;font-weight:normal" x="208.692" y="337.744">
    <tspan x="208.692" y="337.744">D</tspan>
  </text>
  <g>
    <rect style="fill: #ffffff" x="236.692" y="395.159" width="36" height="21"/>
    <rect style="fill: none; fill-opacity:0; stroke-width: 1; stroke-dasharray: 6; stroke: #000000" x="236.692" y="395.159" width="36" height="21"/>
    <text font-size="12.8" style="fill: #000000;text-anchor:middle;font-family:Liberation Serif;font-style:normal;font-weight:normal" x="254.692" y="409.109">
      <tspan x="254.692" y="409.109">Тип</tspan>
    </text>
  </g>
  <g>
    <polyline style="fill: none; fill-opacity:0; stroke-width: 1; stroke: #000000" points="201.692,192.383 201.692,405.659 228.192,405.659 "/>
    <polygon style="fill: #000000" points="228.192,407.659 236.192,405.659 228.192,403.659 "/>
    <polygon style="fill: none; fill-opacity:0; stroke-width: 1; stroke: #000000" points="228.192,407.659 236.192,405.659 228.192,403.659 "/>
  </g>
  <g>
    <polygon style="fill: #ffffff" points="321.138,405.783 337.138,393.783 337.138,417.783 "/>
    <polygon style="fill: none; fill-opacity:0; stroke-width: 1; stroke: #000000" points="321.138,405.783 337.138,393.783 337.138,417.783 "/>
  </g>
  <polyline style="fill: none; fill-opacity:0; stroke-width: 1; stroke: #000000" points="272.692,405.659 296.915,405.659 296.915,405.783 321.138,405.783 "/>
  <g>
    <rect style="fill: #ffffff" x="369.463" y="395.159" width="63.7778" height="21"/>
    <rect style="fill: none; fill-opacity:0; stroke-width: 1; stroke-dasharray: 6; stroke: #000000" x="369.463" y="395.159" width="63.7778" height="21"/>
    <text font-size="12.8" style="fill: #000000;text-anchor:middle;font-family:Liberation Serif;font-style:normal;font-weight:normal" x="401.352" y="409.109">
      <tspan x="401.352" y="409.109">Семестр</tspan>
    </text>
  </g>
  <g>
    <polyline style="fill: none; fill-opacity:0; stroke-width: 1; stroke: #000000" points="337.241,437.673 345.241,437.673 345.241,405.659 360.963,405.659 "/>
    <polygon style="fill: #000000" points="360.963,407.659 368.963,405.659 360.963,403.659 "/>
    <polygon style="fill: none; fill-opacity:0; stroke-width: 1; stroke: #000000" points="360.963,407.659 368.963,405.659 360.963,403.659 "/>
  </g>
  <g>
    <rect style="fill: #ffffff" x="369.241" y="427.159" width="108" height="21"/>
    <rect style="fill: none; fill-opacity:0; stroke-width: 1; stroke-dasharray: 6; stroke: #000000" x="369.241" y="427.159" width="108" height="21"/>
    <text font-size="12.8" style="fill: #000000;text-anchor:middle;font-family:Liberation Serif;font-style:normal;font-weight:normal" x="423.241" y="441.109">
      <tspan x="423.241" y="441.109">Дата ликвидации</tspan>
    </text>
  </g>
  <g>
    <polyline style="fill: none; fill-opacity:0; stroke-width: 1; stroke: #000000" points="337.241,437.673 345.241,437.673 345.241,437.659 360.741,437.659 "/>
    <polygon style="fill: #000000" points="360.741,439.659 368.741,437.659 360.741,435.659 "/>
    <polygon style="fill: none; fill-opacity:0; stroke-width: 1; stroke: #000000" points="360.741,439.659 368.741,437.659 360.741,435.659 "/>
  </g>
  <text font-size="9.59556" style="fill: #000000;text-anchor:start;font-family:Liberation Serif;font-style:italic;font-weight:normal" x="349.241" y="431.159">
    <tspan x="349.241" y="431.159">D</tspan>
  </text>
  <text font-size="9.59556" style="fill: #000000;text-anchor:start;font-family:Liberation Serif;font-style:italic;font-weight:normal" x="349.241" y="399.159">
    <tspan x="349.241" y="399.159">S</tspan>
  </text>
  <g>
    <polygon style="fill: #ffffff" points="321.241,437.673 337.241,425.673 337.241,449.673 "/>
    <polygon style="fill: none; fill-opacity:0; stroke-width: 1; stroke: #000000" points="321.241,437.673 337.241,425.673 337.241,449.673 "/>
  </g>
  <polyline style="fill: none; fill-opacity:0; stroke-width: 1; stroke: #000000" points="272.692,405.659 296.966,405.659 296.966,437.673 321.241,437.673 "/>
  <text font-size="8.46667" style="fill: #000000;text-anchor:start;font-family:Liberation Serif;font-style:normal;font-weight:normal" x="285.241" y="399.159">
    <tspan x="285.241" y="399.159">ТЕКУЩИЙ</tspan>
  </text>
  <text font-size="8.46667" style="fill: #000000;text-anchor:start;font-family:Liberation Serif;font-style:normal;font-weight:normal" x="253.529" y="449.415">
    <tspan x="253.529" y="449.415">ЗАДОЛЖЕННОСТЬ</tspan>
  </text>
  <g>
    <rect style="fill: #ffffff" x="61.66" y="241.744" width="80" height="21"/>
    <rect style="fill: none; fill-opacity:0; stroke-width: 1; stroke-dasharray: 6; stroke: #000000" x="61.66" y="241.744" width="80" height="21"/>
    <text font-size="12.8" style="fill: #000000;text-anchor:middle;font-family:Liberation Serif;font-style:normal;font-weight:normal" x="101.66" y="255.694">
      <tspan x="101.66" y="255.694">Дисциплина</tspan>
    </text>
  </g>
  <g>
    <rect style="fill: #ffffff" x="61.66" y="273.744" width="91.125" height="21"/>
    <rect style="fill: none; fill-opacity:0; stroke-width: 1; stroke-dasharray: 6; stroke: #000000" x="61.66" y="273.744" width="91.125" height="21"/>
    <text font-size="12.8" style="fill: #000000;text-anchor:middle;font-family:Liberation Serif;font-style:normal;font-weight:normal" x="107.223" y="287.694">
      <tspan x="107.223" y="287.694">Преподаватель</tspan>
    </text>
  </g>
  <g>
    <rect style="fill: #ffffff" x="61.66" y="305.744" width="72" height="21"/>
    <rect style="fill: none; fill-opacity:0; stroke-width: 1; stroke-dasharray: 6; stroke: #000000" x="61.66" y="305.744" width="72" height="21"/>
    <text font-size="12.8" style="fill: #000000;text-anchor:middle;font-family:Liberation Serif;font-style:normal;font-weight:normal" x="97.66" y="319.694">
      <tspan x="97.66" y="319.694">Аудитория</tspan>
    </text>
  </g>
  <g>
    <rect style="fill: #ffffff" x="61.66" y="337.744" width="80" height="21"/>
    <rect style="fill: none; fill-opacity:0; stroke-width: 1; stroke-dasharray: 6; stroke: #000000" x="61.66" y="337.744" width="80" height="21"/>
    <text font-size="12.8" style="fill: #000000;text-anchor:middle;font-family:Liberation Serif;font-style:normal;font-weight:normal" x="101.66" y="351.694">
      <tspan x="101.66" y="351.694">Номер пары</tspan>
    </text>
  </g>
  <g>
    <rect style="fill: #ffffff" x="61.66" y="369.744" width="80" height="21"/>
    <rect style="fill: none; fill-opacity:0; stroke-width: 1; stroke-dasharray: 6; stroke: #000000" x="61.66" y="369.744" width="80" height="21"/>
    <text font-size="12.8" style="fill: #000000;text-anchor:middle;font-family:Liberation Serif;font-style:normal;font-weight:normal" x="101.66" y="383.694">
      <tspan x="101.66" y="383.694">День недели</tspan>
    </text>
  </g>
  <g>
    <rect style="fill: #ffffff" x="61.66" y="401.744" width="76" height="21"/>
    <rect style="fill: none; fill-opacity:0; stroke-width: 1; stroke-dasharray: 6; stroke: #000000" x="61.66" y="401.744" width="76" height="21"/>
    <text font-size="12.8" style="fill: #000000;text-anchor:middle;font-family:Liberation Serif;font-style:normal;font-weight:normal" x="99.66" y="415.694">
      <tspan x="99.66" y="415.694">Тип недели</tspan>
    </text>
  </g>
  <text font-size="9.59556" style="fill: #000000;text-anchor:start;font-family:Liberation Serif;font-style:italic;font-weight:normal" x="208.692" y="399.159">
    <tspan x="208.692" y="399.159">S</tspan>
  </text>
  <g>
    <polyline style="fill: none; fill-opacity:0; stroke-width: 1; stroke: #000000" points="25.66,228.383 25.66,252.244 53.16,252.244 "/>
    <polygon style="fill: #000000" points="53.16,254.244 61.16,252.244 53.16,250.244 "/>
    <polygon style="fill: none; fill-opacity:0; stroke-width: 1; stroke: #000000" points="53.16,254.244 61.16,252.244 53.16,250.244 "/>
  </g>
  <g>
    <polyline style="fill: none; fill-opacity:0; stroke-width: 1; stroke: #000000" points="25.66,228.383 25.66,284.244 53.16,284.244 "/>
    <polygon style="fill: #000000" points="53.16,286.244 61.16,284.244 53.16,282.244 "/>
    <polygon style="fill: none; fill-opacity:0; stroke-width: 1; stroke: #000000" points="53.16,286.244 61.16,284.244 53.16,282.244 "/>
  </g>
  <g>
    <polyline style="fill: none; fill-opacity:0; stroke-width: 1; stroke: #000000" points="25.66,228.383 25.66,316.244 53.16,316.244 "/>
    <polygon style="fill: #000000" points="53.16,318.244 61.16,316.244 53.16,314.244 "/>
    <polygon style="fill: none; fill-opacity:0; stroke-width: 1; stroke: #000000" points="53.16,318.244 61.16,316.244 53.16,314.244 "/>
  </g>
  <g>
    <polyline style="fill: none; fill-opacity:0; stroke-width: 1; stroke: #000000" points="25.66,228.383 25.66,348.244 53.16,348.244 "/>
    <polygon style="fill: #000000" points="53.16,350.244 61.16,348.244 53.16,346.244 "/>
    <polygon style="fill: none; fill-opacity:0; stroke-width: 1; stroke: #000000" points="53.16,350.244 61.16,348.244 53.16,346.244 "/>
  </g>
  <g>
    <polyline style="fill: none; fill-opacity:0; stroke-width: 1; stroke: #000000" points="25.66,228.383 25.66,380.244 53.16,380.244 "/>
    <polygon style="fill: #000000" points="53.16,382.244 61.16,380.244 53.16,378.244 "/>
    <polygon style="fill: none; fill-opacity:0; stroke-width: 1; stroke: #000000" points="53.16,382.244 61.16,380.244 53.16,378.244 "/>
  </g>
  <g>
    <polyline style="fill: none; fill-opacity:0; stroke-width: 1; stroke: #000000" points="25.66,228.383 25.66,412.244 41.66,412.244 "/>
    <polygon style="fill: #000000" points="51.66,414.744 61.66,412.244 51.66,409.744 "/>
    <polygon style="fill: #000000" points="41.66,414.744 51.66,412.244 41.66,409.744 "/>
  </g>
  <text font-size="9.59556" style="fill: #000000;text-anchor:start;font-family:Liberation Serif;font-style:italic;font-weight:normal" x="33.66" y="245.744">
    <tspan x="33.66" y="245.744">S</tspan>
  </text>
  <text font-size="9.59556" style="fill: #000000;text-anchor:start;font-family:Liberation Serif;font-style:italic;font-weight:normal" x="169.66" y="273.744">
    <tspan x="169.66" y="273.744"></tspan>
  </text>
  <text font-size="9.59556" style="fill: #000000;text-anchor:start;font-family:Liberation Serif;font-style:italic;font-weight:normal" x="33.66" y="277.744">
    <tspan x="33.66" y="277.744">D</tspan>
  </text>
  <text font-size="9.59556" style="fill: #000000;text-anchor:start;font-family:Liberation Serif;font-style:italic;font-weight:normal" x="33.66" y="309.744">
    <tspan x="33.66" y="309.744">D</tspan>
  </text>
  <text font-size="9.59556" style="fill: #000000;text-anchor:start;font-family:Liberation Serif;font-style:italic;font-weight:normal" x="33.66" y="341.744">
    <tspan x="33.66" y="341.744">D</tspan>
  </text>
  <text font-size="9.59556" style="fill: #000000;text-anchor:start;font-family:Liberation Serif;font-style:italic;font-weight:normal" x="33.66" y="373.744">
    <tspan x="33.66" y="373.744">D</tspan>
  </text>
  <text font-size="9.59556" style="fill: #000000;text-anchor:start;font-family:Liberation Serif;font-style:italic;font-weight:normal" x="33.66" y="405.744">
    <tspan x="33.66" y="405.744">D</tspan>
  </text>
  <g>
    <rect style="fill: #ffffff" x="73.66" y="498.736" width="88" height="21"/>
    <rect style="fill: none; fill-opacity:0; stroke-width: 1; stroke-dasharray: 6; stroke: #000000" x="73.66" y="498.736" width="88" height="21"/>
    <text font-size="12.8" style="fill: #000000;text-anchor:middle;font-family:Liberation Serif;font-style:normal;font-weight:normal" x="117.66" y="512.686">
      <tspan x="117.66" y="512.686">Название КМ</tspan>
    </text>
  </g>
  <g>
    <rect style="fill: #ffffff" x="73.66" y="530.736" width="60" height="21"/>
    <rect style="fill: none; fill-opacity:0; stroke-width: 1; stroke-dasharray: 6; stroke: #000000" x="73.66" y="530.736" width="60" height="21"/>
    <text font-size="12.8" style="fill: #000000;text-anchor:middle;font-family:Liberation Serif;font-style:normal;font-weight:normal" x="103.66" y="544.686">
      <tspan x="103.66" y="544.686">Тип КМ</tspan>
    </text>
  </g>
  <g>
    <rect style="fill: #ffffff" x="73.66" y="562.736" width="88" height="21"/>
    <rect style="fill: none; fill-opacity:0; stroke-width: 1; stroke-dasharray: 6; stroke: #000000" x="73.66" y="562.736" width="88" height="21"/>
    <text font-size="12.8" style="fill: #000000;text-anchor:middle;font-family:Liberation Serif;font-style:normal;font-weight:normal" x="117.66" y="576.686">
      <tspan x="117.66" y="576.686">Номер недели</tspan>
    </text>
  </g>
  <g>
    <rect style="fill: #ffffff" x="73.66" y="596.037" width="123.725" height="21"/>
    <rect style="fill: none; fill-opacity:0; stroke-width: 1; stroke-dasharray: 6; stroke: #000000" x="73.66" y="596.037" width="123.725" height="21"/>
    <text font-size="12.8" style="fill: #000000;text-anchor:middle;font-family:Liberation Serif;font-style:normal;font-weight:normal" x="135.523" y="609.987">
      <tspan x="135.523" y="609.987">Максимальный балл</tspan>
    </text>
  </g>
  <g>
    <rect style="fill: #ffffff" x="73.66" y="628.037" width="88" height="21"/>
    <rect style="fill: none; fill-opacity:0; stroke-width: 1; stroke-dasharray: 6; stroke: #000000" x="73.66" y="628.037" width="88" height="21"/>
    <text font-size="12.8" style="fill: #000000;text-anchor:middle;font-family:Liberation Serif;font-style:normal;font-weight:normal" x="117.66" y="641.987">
      <tspan x="117.66" y="641.987">Текущий балл</tspan>
    </text>
  </g>
  <g>
    <polyline style="fill: none; fill-opacity:0; stroke-width: 1; stroke: #000000" points="37.66,487.014 37.66,509.236 65.16,509.236 "/>
    <polygon style="fill: #000000" points="65.16,511.236 73.16,509.236 65.16,507.236 "/>
    <polygon style="fill: none; fill-opacity:0; stroke-width: 1; stroke: #000000" points="65.16,511.236 73.16,509.236 65.16,507.236 "/>
  </g>
  <g>
    <polyline style="fill: none; fill-opacity:0; stroke-width: 1; stroke: #000000" points="37.66,487.014 37.66,541.236 65.16,541.236 "/>
    <polygon style="fill: #000000" points="65.16,543.236 73.16,541.236 65.16,539.236 "/>
    <polygon style="fill: none; fill-opacity:0; stroke-width: 1; stroke: #000000" points="65.16,543.236 73.16,541.236 65.16,539.236 "/>
  </g>
  <g>
    <polyline style="fill: none; fill-opacity:0; stroke-width: 1; stroke: #000000" points="37.66,487.014 37.66,573.236 65.16,573.236 "/>
    <polygon style="fill: #000000" points="65.16,575.236 73.16,573.236 65.16,571.236 "/>
    <polygon style="fill: none; fill-opacity:0; stroke-width: 1; stroke: #000000" points="65.16,575.236 73.16,573.236 65.16,571.236 "/>
  </g>
  <g>
    <polyline style="fill: none; fill-opacity:0; stroke-width: 1; stroke: #000000" points="37.66,487.014 37.66,606.537 65.16,606.537 "/>
    <polygon style="fill: #000000" points="65.16,608.537 73.16,606.537 65.16,604.537 "/>
    <polygon style="fill: none; fill-opacity:0; stroke-width: 1; stroke: #000000" points="65.16,608.537 73.16,606.537 65.16,604.537 "/>
  </g>
  <g>
    <polyline style="fill: none; fill-opacity:0; stroke-width: 1; stroke: #000000" points="37.66,487.014 37.66,638.537 65.16,638.537 "/>
    <polygon style="fill: #000000" points="65.16,640.537 73.16,638.537 65.16,636.537 "/>
    <polygon style="fill: none; fill-opacity:0; stroke-width: 1; stroke: #000000" points="65.16,640.537 73.16,638.537 65.16,636.537 "/>
  </g>
  <text font-size="9.59556" style="fill: #000000;text-anchor:start;font-family:Liberation Serif;font-style:italic;font-weight:normal" x="45.66" y="630.736">
    <tspan x="45.66" y="630.736">D</tspan>
  </text>
  <text font-size="9.59556" style="fill: #000000;text-anchor:start;font-family:Liberation Serif;font-style:italic;font-weight:normal" x="45.66" y="598.736">
    <tspan x="45.66" y="598.736">D</tspan>
  </text>
  <text font-size="9.59556" style="fill: #000000;text-anchor:start;font-family:Liberation Serif;font-style:italic;font-weight:normal" x="45.66" y="502.736">
    <tspan x="45.66" y="502.736">S</tspan>
  </text>
  <text font-size="9.59556" style="fill: #000000;text-anchor:start;font-family:Liberation Serif;font-style:italic;font-weight:normal" x="45.66" y="534.736">
    <tspan x="45.66" y="534.736">S</tspan>
  </text>
  <text font-size="9.59556" style="fill: #000000;text-anchor:start;font-family:Liberation Serif;font-style:italic;font-weight:normal" x="45.66" y="566.736">
    <tspan x="45.66" y="566.736">S</tspan>
  </text>
  <g>
    <rect style="fill: #ffffff" x="324" y="5" width="108.9" height="22.6389"/>
    <rect style="fill: none; fill-opacity:0; stroke-width: 1; stroke: #000000" x="324" y="5" width="108.9" height="22.6389"/>
    <text font-size="14.1111" style="fill: #000000;text-anchor:middle;font-family:Liberation Serif;font-style:normal;font-weight:normal" x="378.45" y="20.1">
      <tspan x="378.45" y="20.1">РАСПИСАНИЕ</tspan>
    </text>
  </g>
  <g>
    <rect style="fill: #ffffff" x="392" y="73" width="56" height="21"/>
    <rect style="fill: none; fill-opacity:0; stroke-width: 1; stroke-dasharray: 6; stroke: #000000" x="392" y="73" width="56" height="21"/>
    <text font-size="12.8" style="fill: #000000;text-anchor:middle;font-family:Liberation Serif;font-style:normal;font-weight:normal" x="420" y="86.95">
      <tspan x="420" y="86.95">Занятие</tspan>
    </text>
  </g>
  <g>
    <polyline style="fill: none; fill-opacity:0; stroke-width: 1; stroke: #000000" points="351.225,27.6389 351.225,83.5 372,83.5 "/>
    <polygon style="fill: #000000" points="382,86 392,83.5 382,81 "/>
    <polygon style="fill: #000000" points="372,86 382,83.5 372,81 "/>
  </g>
  <text font-size="9.59556" style="fill: #000000;text-anchor:start;font-family:Liberation Serif;font-style:italic;font-weight:normal" x="356" y="77">
    <tspan x="356" y="77">D</tspan>
  </text>
  <g>
    <rect style="fill: #ffffff" x="64" y="137" width="76" height="21"/>
    <rect style="fill: none; fill-opacity:0; stroke-width: 1; stroke-dasharray: 6; stroke: #000000" x="64" y="137" width="76" height="21"/>
    <text font-size="12.8" style="fill: #000000;text-anchor:middle;font-family:Liberation Serif;font-style:normal;font-weight:normal" x="102" y="150.95">
      <tspan x="102" y="150.95">Расписание</tspan>
    </text>
  </g>
  <g>
    <polyline style="fill: none; fill-opacity:0; stroke-width: 1; stroke: #000000" points="26.66,28.3829 26.66,147.5 55.5,147.5 "/>
    <polygon style="fill: #000000" points="55.5,149.5 63.5,147.5 55.5,145.5 "/>
    <polygon style="fill: none; fill-opacity:0; stroke-width: 1; stroke: #000000" points="55.5,149.5 63.5,147.5 55.5,145.5 "/>
  </g>
  <g>
    <rect style="fill: #ffffff" x="392" y="41" width="56" height="21"/>
    <rect style="fill: none; fill-opacity:0; stroke-width: 1; stroke-dasharray: 6; stroke: #000000" x="392" y="41" width="56" height="21"/>
    <text font-size="12.8" style="fill: #000000;text-anchor:middle;font-family:Liberation Serif;font-style:normal;font-weight:normal" x="420" y="54.95">
      <tspan x="420" y="54.95">Группа</tspan>
    </text>
  </g>
  <g>
    <polyline style="fill: none; fill-opacity:0; stroke-width: 1; stroke: #000000" points="351.225,27.6389 351.225,51.5 383.5,51.5 "/>
    <polygon style="fill: #000000" points="383.5,53.5 391.5,51.5 383.5,49.5 "/>
    <polygon style="fill: none; fill-opacity:0; stroke-width: 1; stroke: #000000" points="383.5,53.5 391.5,51.5 383.5,49.5 "/>
  </g>
  <text font-size="9.59556" style="fill: #000000;text-anchor:start;font-family:Liberation Serif;font-style:italic;font-weight:normal" x="356" y="45">
    <tspan x="356" y="45">S</tspan>
  </text>
  <g>
    <rect style="fill: #ffffff" x="168.825" y="463.389" width="72.6" height="22.6389"/>
    <rect style="fill: none; fill-opacity:0; stroke-width: 1; stroke: #000000" x="168.825" y="463.389" width="72.6" height="22.6389"/>
    <text font-size="14.1111" style="fill: #000000;text-anchor:middle;font-family:Liberation Serif;font-style:normal;font-weight:normal" x="205.125" y="478.489">
      <tspan x="205.125" y="478.489">РЕСУРС</tspan>
    </text>
  </g>
  <g>
    <rect style="fill: #ffffff" x="236.825" y="531.389" width="43.5981" height="21"/>
    <rect style="fill: none; fill-opacity:0; stroke-width: 1; stroke-dasharray: 6; stroke: #000000" x="236.825" y="531.389" width="43.5981" height="21"/>
    <text font-size="12.8" style="fill: #000000;text-anchor:middle;font-family:Liberation Serif;font-style:normal;font-weight:normal" x="258.624" y="545.339">
      <tspan x="258.624" y="545.339">Файл</tspan>
    </text>
  </g>
  <g>
    <polyline style="fill: none; fill-opacity:0; stroke-width: 1; stroke: #000000" points="186.975,486.028 186.975,541.889 228.325,541.889 "/>
    <polygon style="fill: #000000" points="228.325,543.889 236.325,541.889 228.325,539.889 "/>
    <polygon style="fill: none; fill-opacity:0; stroke-width: 1; stroke: #000000" points="228.325,543.889 236.325,541.889 228.325,539.889 "/>
  </g>
  <text font-size="9.59556" style="fill: #000000;text-anchor:start;font-family:Liberation Serif;font-style:italic;font-weight:normal" x="193.949" y="535.715">
    <tspan x="193.949" y="535.715">D</tspan>
  </text>
  <g>
    <rect style="fill: #ffffff" x="236.825" y="499.389" width="43.5981" height="21"/>
    <rect style="fill: none; fill-opacity:0; stroke-width: 1; stroke-dasharray: 6; stroke: #000000" x="236.825" y="499.389" width="43.5981" height="21"/>
    <text font-size="12.8" style="fill: #000000;text-anchor:middle;font-family:Liberation Serif;font-style:normal;font-weight:normal" x="258.624" y="513.339">
      <tspan x="258.624" y="513.339">Тема</tspan>
    </text>
  </g>
  <g>
    <polyline style="fill: none; fill-opacity:0; stroke-width: 1; stroke: #000000" points="186.975,486.028 186.975,509.889 228.325,509.889 "/>
    <polygon style="fill: #000000" points="228.325,511.889 236.325,509.889 228.325,507.889 "/>
    <polygon style="fill: none; fill-opacity:0; stroke-width: 1; stroke: #000000" points="228.325,511.889 236.325,509.889 228.325,507.889 "/>
  </g>
  <text font-size="9.59556" style="fill: #000000;text-anchor:start;font-family:Liberation Serif;font-style:italic;font-weight:normal" x="193.949" y="503.715">
    <tspan x="193.949" y="503.715">S</tspan>
  </text>
  <g>
    <rect style="fill: #ffffff" x="236.423" y="563.715" width="36" height="21"/>
    <rect style="fill: none; fill-opacity:0; stroke-width: 1; stroke-dasharray: 6; stroke: #000000" x="236.423" y="563.715" width="36" height="21"/>
    <text font-size="12.8" style="fill: #000000;text-anchor:middle;font-family:Liberation Serif;font-style:normal;font-weight:normal" x="254.423" y="577.665">
      <tspan x="254.423" y="577.665">Тип</tspan>
    </text>
  </g>
  <g>
    <polyline style="fill: none; fill-opacity:0; stroke-width: 1; stroke: #000000" points="186.975,486.028 186.975,574.215 227.923,574.215 "/>
    <polygon style="fill: #000000" points="227.923,576.215 235.923,574.215 227.923,572.215 "/>
    <polygon style="fill: none; fill-opacity:0; stroke-width: 1; stroke: #000000" points="227.923,576.215 235.923,574.215 227.923,572.215 "/>
  </g>
  <text font-size="9.59556" style="fill: #000000;text-anchor:start;font-family:Liberation Serif;font-style:italic;font-weight:normal" x="193.949" y="567.715">
    <tspan x="193.949" y="567.715">D</tspan>
  </text>
  <g>
    <rect style="fill: #ffffff" x="236" y="364" width="48" height="21"/>
    <rect style="fill: none; fill-opacity:0; stroke-width: 1; stroke-dasharray: 6; stroke: #000000" x="236" y="364" width="48" height="21"/>
    <text font-size="12.8" style="fill: #000000;text-anchor:middle;font-family:Liberation Serif;font-style:normal;font-weight:normal" x="260" y="377.95">
      <tspan x="260" y="377.95">Ресурс</tspan>
    </text>
  </g>
  <g>
    <polyline style="fill: none; fill-opacity:0; stroke-width: 1; stroke: #000000" points="201.692,192.383 201.692,374.5 216,374.5 "/>
    <polygon style="fill: #000000" points="226,377 236,374.5 226,372 "/>
    <polygon style="fill: #000000" points="216,377 226,374.5 216,372 "/>
  </g>
  <text font-size="9.59556" style="fill: #000000;text-anchor:start;font-family:Liberation Serif;font-style:italic;font-weight:normal" x="208" y="368">
    <tspan x="208" y="368">D</tspan>
  </text>
</svg>
