<?xml version="1.0" standalone="no"?><!-- Generator: Gravit.io --><svg xmlns="http://www.w3.org/2000/svg" xmlns:xlink="http://www.w3.org/1999/xlink" style="isolation:isolate" viewBox="0 0 550 550" width="550" height="550"><defs><clipPath id="_clipPath_D5ITpgOHLtdChGvtLwi3uZ0vcgbWbaSF"><rect width="550" height="550"/></clipPath></defs><g clip-path="url(#_clipPath_D5ITpgOHLtdChGvtLwi3uZ0vcgbWbaSF)"><g id="Group"><g id="shape3"><g transform="matrix(1,0,0,1,44.772,56.41)"><text transform="matrix(0.297,0.955,-0.955,0.297,-25.065,305.84)" style="font-family:&quot;Open Sans&quot;;font-weight:400;font-size:24px;font-style:normal;fill:#171717;stroke:none;">A</text><text transform="matrix(0.344,0.939,-0.939,0.344,-20.561,320.344)" style="font-family:&quot;Open Sans&quot;;font-weight:400;font-size:24px;font-style:normal;fill:#171717;stroke:none;">n</text><text transform="matrix(0.397,0.918,-0.918,0.397,-15.522,334.189)" style="font-family:&quot;Open Sans&quot;;font-weight:400;font-size:24px;font-style:normal;fill:#171717;stroke:none;">d</text><text transform="matrix(0.434,0.901,-0.901,0.434,-9.567,347.634)" style="font-family:&quot;Open Sans&quot;;font-weight:400;font-size:24px;font-style:normal;fill:#171717;stroke:none;">r</text><text transform="matrix(0.477,0.879,-0.879,0.477,-5.321,356.464)" style="font-family:&quot;Open Sans&quot;;font-weight:400;font-size:24px;font-style:normal;fill:#171717;stroke:none;">o</text><text transform="matrix(0.519,0.855,-0.855,0.519,1.649,369.172)" style="font-family:&quot;Open Sans&quot;;font-weight:400;font-size:24px;font-style:normal;fill:#171717;stroke:none;">i</text><text transform="matrix(0.559,0.829,-0.829,0.559,4.575,374.504)" style="font-family:&quot;Open Sans&quot;;font-weight:400;font-size:24px;font-style:normal;fill:#171717;stroke:none;">d</text></g><path d=" M 495.683 379.863 C 460.583 465.063 376.783 524.963 279.083 524.963 C 149.683 524.963 44.783 420.063 44.783 290.763 C 44.783 161.363 149.683 56.463 279.083 56.463 C 282.283 56.463 285.483 56.563 288.683 56.663 L 279.083 290.763 L 495.683 379.863 Z " fill="rgb(27,188,157)" vector-effect="non-scaling-stroke" stroke-width="1" stroke="rgb(27,188,157)" stroke-linejoin="miter" stroke-linecap="butt" stroke-miterlimit="4"/><g transform="matrix(1,0,0,1,147.853,325.991)"><text transform="matrix(1,0,0,1,0,22.632)" style="font-family:&quot;Arial&quot;;font-weight:400;font-size:25px;font-style:normal;fill:#FFFFFF;stroke:none;">69.85%</text></g></g><g id="shape2"><g transform="matrix(1,0,0,1,279.083,68.363)"><text transform="matrix(0.46,0.888,-0.888,0.46,218.956,105.396)" style="font-family:&quot;Open Sans&quot;;font-weight:400;font-size:24px;font-style:normal;fill:#171717;stroke:none;">i</text><text transform="matrix(0.425,0.905,-0.905,0.425,221.821,110.75)" style="font-family:&quot;Open Sans&quot;;font-weight:400;font-size:24px;font-style:normal;fill:#171717;stroke:none;">O</text><text transform="matrix(0.353,0.936,-0.936,0.353,229.61,127.743)" style="font-family:&quot;Open Sans&quot;;font-weight:400;font-size:24px;font-style:normal;fill:#171717;stroke:none;">S</text></g><path d=" M 352.783 68.363 C 446.083 99.263 513.283 187.163 513.283 290.763 C 513.283 322.363 507.083 352.463 495.683 379.863 L 279.083 290.763 L 352.783 68.363 Z " fill="rgb(221,113,149)" vector-effect="non-scaling-stroke" stroke-width="1" stroke="rgb(221,113,149)" stroke-linejoin="miter" stroke-linecap="butt" stroke-miterlimit="4"/><g transform="matrix(1,0,0,1,364.943,218.121)"><text transform="matrix(1,0,0,1,0,22.632)" style="font-family:&quot;Arial&quot;;font-weight:400;font-size:25px;font-style:normal;fill:#FFFFFF;stroke:none;">26.48%</text></g></g><g id="shape1"><g transform="matrix(1,0,0,1,279.08,56.658)"><text transform="matrix(0.997,0.075,-0.075,0.997,10.957,-17.071)" style="font-family:&quot;Open Sans&quot;;font-weight:400;font-size:21px;font-style:normal;fill:#171717;stroke:none;">Д</text><text transform="matrix(0.994,0.11,-0.11,0.994,25.257,-15.934)" style="font-family:&quot;Open Sans&quot;;font-weight:400;font-size:21px;font-style:normal;fill:#171717;stroke:none;">р</text><text transform="matrix(0.985,0.174,-0.174,0.985,38.036,-14.407)" style="font-family:&quot;Open Sans&quot;;font-weight:400;font-size:21px;font-style:normal;fill:#171717;stroke:none;">у</text><text transform="matrix(0.977,0.215,-0.215,0.977,48.458,-12.57)" style="font-family:&quot;Open Sans&quot;;font-weight:400;font-size:21px;font-style:normal;fill:#171717;stroke:none;">г</text><text transform="matrix(0.968,0.25,-0.25,0.968,57.249,-10.674)" style="font-family:&quot;Open Sans&quot;;font-weight:400;font-size:21px;font-style:normal;fill:#171717;stroke:none;">и</text><text transform="matrix(0.959,0.285,-0.285,0.959,70.102,-7.223)" style="font-family:&quot;Open Sans&quot;;font-weight:400;font-size:21px;font-style:normal;fill:#171717;stroke:none;">е</text></g><path d=" M 288.683 56.663 C 311.083 57.563 332.583 61.563 352.783 68.363 L 279.083 290.763 L 288.683 56.663 Z " fill="rgb(255,175,0)" vector-effect="non-scaling-stroke" stroke-width="1" stroke="rgb(255,175,0)" stroke-linejoin="miter" stroke-linecap="butt" stroke-miterlimit="4"/><g transform="matrix(0.18,-0.98,0.98,0.18,287.084,165.317)"><text transform="matrix(1,0,0,1,0,22.632)" style="font-family:&quot;Arial&quot;;font-weight:400;font-size:25px;font-style:normal;fill:#FFFFFF;stroke:none;">3.67%</text></g></g></g></g></svg>