<svg xmlns="http://www.w3.org/2000/svg" xmlns:xlink="http://www.w3.org/1999/xlink" viewBox="0 0 342 248" height="248" width="342">
    <style type="text/css"><![CDATA[
.st2 {fill:#000000;font-family:Arial;font-size:10pt}
.st3 {fill:#191919;font-family:Arial;font-size:10pt}
.st1 {fill:#ffffff;font-family:Arial;font-size:10pt}
]]></style>
    <defs/>
    <g transform="translate(1,1)">
        <g id="shape1">
            <path d="M123,0C190.9,0,246,55.1,246,123C246,190.9,190.9,246,123,246C68.8,246,22.7,210.9,6.4,162.1L123,123L123,0z" stroke="#1bbc9d" fill="#1bbc9d"/>
            <text class="st1">
                <tspan x="156.9" y="166.7">69.85%</tspan>
            </text>
        </g>
        <g id="shape2">
            <path d="M6.4,162.1C2.2,149.8,0,136.7,0,123C0,64.8,40.5,16,94.9,3.3L123,123L6.4,162.1z" stroke="#3498db" fill="#3498db"/>
            <text class="st1">
                <tspan x="40.8" y="93">26.48%</tspan>
            </text>
        </g>
        <g id="shape3">
            <path d="M94.9,3.3C103.9,1.1,113.3,0,123,0L123,123L94.9,3.3z" stroke="#ee7c31" fill="#ee7c31"/>
            <text class="st1">
                <tspan x="96.7" y="58.1">3.67%</tspan>
            </text>
        </g>
        <g transform="translate(264.92,12.3)">
            <g id="shape4">
                <path d="M0,0M19,9.5C19,14.7,14.7,19,9.5,19C4.3,19,0,14.7,0,9.5C0,4.3,4.3,0,9.5,0C14.7,0,19,4.3,19,9.5z" stroke="#1bbc9d" fill="#1bbc9d"/>
                <text class="st2">
                    <tspan x="26.8" y="13">Android</tspan>
                </text>
            </g>
            <g id="shape5" transform="translate(0,27)">
                <path d="M0,0M19,9.5C19,14.7,14.7,19,9.5,19C4.3,19,0,14.7,0,9.5C0,4.3,4.3,0,9.5,0C14.7,0,19,4.3,19,9.5z" stroke="#3498db" fill="#3498db"/>
                <text class="st2">
                    <tspan x="26.8" y="13">iOS</tspan>
                </text>
            </g>
            <g id="shape6" transform="translate(0,54)">
                <path d="M0,0M19,9.5C19,14.7,14.7,19,9.5,19C4.3,19,0,14.7,0,9.5C0,4.3,4.3,0,9.5,0C14.7,0,19,4.3,19,9.5z" stroke="#ee7c31" fill="#ee7c31"/>
                <text class="st3">
                    <tspan x="26.8" y="13">Другие</tspan>
                </text>
            </g>
        </g>
    </g>
</svg>
